<svg xmlns="http://www.w3.org/2000/svg" width="20" height="20" viewBox="0 0 20 20">
  <g id="aparat" transform="translate(-124.543 -0.003)">
    <g id="brand" transform="translate(124.543 0.003)">
      <g id="logo--black--without_text" transform="translate(0 0)">
        <path id="Path_870" data-name="Path 870" d="M139.511.608l-1.9-.5A3.2,3.2,0,0,0,133.7,2.385l-.478,1.8A9.809,9.809,0,0,1,139.511.608Z" transform="translate(-130.593 -0.003)" fill="#646466"/>
        <path id="Path_871" data-name="Path 871" d="M125.117,39.33l-.466,1.756A3.2,3.2,0,0,0,126.925,45l1.816.484A9.812,9.812,0,0,1,125.117,39.33Z" transform="translate(-124.543 -28.118)" fill="#646466"/>
        <path id="Path_872" data-name="Path 872" d="M180.3,9l-2.04-.542a9.809,9.809,0,0,1,3.754,6.569l.56-2.119A3.2,3.2,0,0,0,180.3,9Z" transform="translate(-162.68 -5.9)" fill="#646466"/>
        <path id="Path_873" data-name="Path 873" d="M163.23,57.468l1.953.527a3.2,3.2,0,0,0,3.917-2.274l.551-2.071A9.815,9.815,0,0,1,163.23,57.468Z" transform="translate(-152.2 -38.102)" fill="#646466"/>
        <path id="Path_874" data-name="Path 874" d="M137.709,4.54a8.624,8.624,0,1,0,8.629,8.624A8.626,8.626,0,0,0,137.709,4.54Zm-4.887,4.3a2.464,2.464,0,1,1,1.954,2.884,2.464,2.464,0,0,1-1.954-2.884Zm3.585,7.451a2.462,2.462,0,1,1-.378-1.849A2.464,2.464,0,0,1,136.407,16.292Zm1.046-1.994a1.095,1.095,0,1,1,.824-.17,1.094,1.094,0,0,1-.824.17Zm5.14,3.181a2.464,2.464,0,1,1-1.954-2.884A2.464,2.464,0,0,1,142.593,17.48Zm-1.631-4.564a2.459,2.459,0,1,1,1.849-.377,2.462,2.462,0,0,1-1.849.377Z" transform="translate(-127.707 -3.167)" fill="#646466"/>
      </g>
    </g>
  </g>
</svg>
