<svg xmlns="http://www.w3.org/2000/svg" width="20" height="20" viewBox="0 0 20 20">
  <g id="bale" transform="translate(1706.79 33.333)">
    <path id="Path_876" data-name="Path 876" d="M17.86,13.058,21.711,9.2a6.16,6.16,0,0,1,.8-.753,1.968,1.968,0,0,1,3,2.276,2.158,2.158,0,0,1-.659.892c-.278.269-.51.5-.78.771L19.4,17.035a1.949,1.949,0,0,1-2.19.613,5.716,5.716,0,0,1-1.671-1.412l-1.55-1.552a2.815,2.815,0,0,1-1.151-1.942,1.951,1.951,0,0,1,3.053-1.635c.176.121.993.966,1.188,1.152a6.313,6.313,0,0,0,.807.771h0l-.019.019ZM9.21,3.943v8.6a10.556,10.556,0,0,0,.854,4.181,10.012,10.012,0,0,0,2.682,3.577,8.635,8.635,0,0,0,2.32,1.468,9.918,9.918,0,0,0,6.329.66,11.151,11.151,0,0,0,1.856-.613c.306-.139.548-.26.826-.418s.5-.279.77-.465a13.213,13.213,0,0,0,1.364-1.115,10.047,10.047,0,0,0,3-6.894,9.9,9.9,0,0,0-.928-4.469,9.8,9.8,0,0,0-4.91-4.887,9.945,9.945,0,0,0-9.364.585c-.752.446-.418.558-1.309-.1-.585-.437-1.689-1.375-2.4-1.375A1.165,1.165,0,0,0,9.229,3.924h0l-.019.009Z" transform="translate(-1716 -36)" fill="#646466" fill-rule="evenodd"/>
    <path id="Path_877" data-name="Path 877" d="M18.037,13.645a5.713,5.713,0,0,1-.791-.788c-.191-.2-.982-1.067-1.164-1.2a1.911,1.911,0,0,0-2.992,1.692,2.976,2.976,0,0,0,1.128,2.019c.518.538,1,1.058,1.519,1.606a5.815,5.815,0,0,0,1.637,1.461,1.828,1.828,0,0,0,2.146-.635l4.574-4.807c.264-.288.482-.519.764-.8a2.292,2.292,0,0,0,.646-.923,2.063,2.063,0,0,0-.646-2.327,1.867,1.867,0,0,0-2.292-.029,7.682,7.682,0,0,0-.782.779l-3.774,3.99h0l.018-.019Z" transform="translate(-1716.15 -36.594)" fill="#fefefe" fill-rule="evenodd"/>
  </g>
</svg>
