<svg id="icon" xmlns="http://www.w3.org/2000/svg" width="32.355" height="20.295" viewBox="0 0 32.355 20.295">
  <path id="users-alt-3" d="M13.853,214.247c-2.765,0-5.531-.006-8.3.008-.294,0-.324-.1-.344-.357-.133-1.74.906-2.7,2.272-3.436.876-.474,1.837-.748,2.752-1.136a4.679,4.679,0,0,0,1.031-.554.76.76,0,0,0,.224-1.111c-.2-.335-.454-.64-.671-.964a6.8,6.8,0,0,1-1.061-5.542A4.163,4.163,0,0,1,14,197.87a3.917,3.917,0,0,1,3.7,2.5,6.432,6.432,0,0,1-.687,6.2c-.2.324-.449.618-.662.934a.853.853,0,0,0,.3,1.391,11.054,11.054,0,0,0,2.209.953,7.4,7.4,0,0,1,2.879,1.693,3.091,3.091,0,0,1,.79,2.563c-.014.205-.163.139-.266.139-.986.006-1.97.006-2.957.006q-2.731,0-5.459,0v0Zm11.672-2.433h-1.9c-.111,0-.213,0-.28-.125a6.491,6.491,0,0,0-3.566-2.81c-.643-.255-1.291-.5-1.94-.743-.238-.089-.319-.166-.127-.424a8.252,8.252,0,0,0,1.693-5.528,6.182,6.182,0,0,0-1.419-3.674c-.163-.194-.114-.26.061-.38a3.654,3.654,0,0,1,5.5,1.7,5.691,5.691,0,0,1-.829,5.512c-.155.222-.33.432-.474.662a.7.7,0,0,0,.2,1.05,6.213,6.213,0,0,0,1.629.765,8.414,8.414,0,0,1,2.594,1.311,2.727,2.727,0,0,1,1.047,2.5c-.017.205-.133.188-.263.188Zm-15.31-3.841a9.054,9.054,0,0,1-1.477.607,21.973,21.973,0,0,0-2.092.923,5.389,5.389,0,0,0-2.2,2.125.31.31,0,0,1-.3.188c-1.3,0-2.594-.005-3.891,0-.191,0-.2-.083-.211-.233a2.873,2.873,0,0,1,1.541-2.821,8.824,8.824,0,0,1,1.94-.887,8.056,8.056,0,0,0,1.621-.715c.579-.366.671-.709.283-1.275a9.1,9.1,0,0,1-1.081-1.768A5.422,5.422,0,0,1,4.4,199.4a3.663,3.663,0,0,1,5.323-1.264c.158.111.224.172.067.357a6.5,6.5,0,0,0-1.41,5.049,8.044,8.044,0,0,0,1.74,4.3,1.425,1.425,0,0,1,.091.136Z" transform="translate(-0.023 -193.961)" fill="#ee1c25"/>
  <path id="question" d="M248.061,65.951a4.6,4.6,0,0,0,.531-.126,2.093,2.093,0,0,0,.509-.227,1.257,1.257,0,0,0,.381-.36.917.917,0,0,0,.149-.536.838.838,0,0,0-.344-.724,1.511,1.511,0,0,0-.907-.249c-.155,0-.292.006-.414.016a2.235,2.235,0,0,0-.337.055c-.1.026-.209.055-.315.088s-.22.072-.337.116a3.461,3.461,0,0,1-.254-.6,2.681,2.681,0,0,1-.122-.641c.191-.067.369-.124.531-.171s.321-.087.476-.116a4.557,4.557,0,0,1,.465-.06c.155-.01.321-.016.5-.016a2.922,2.922,0,0,1,2,.6,2.1,2.1,0,0,1,.674,1.653,1.9,1.9,0,0,1-.2.9,2.326,2.326,0,0,1-.481.636,2.866,2.866,0,0,1-.58.421c-.2.106-.362.186-.487.238v1.005a4.417,4.417,0,0,1-.74.067,3.563,3.563,0,0,1-.7-.067Zm-.11,4.4a5.077,5.077,0,0,1-.067-.807,5.175,5.175,0,0,1,.067-.818,5.076,5.076,0,0,1,.807-.067,5.275,5.275,0,0,1,.818.067,5.211,5.211,0,0,1,.067.807,5.134,5.134,0,0,1-.067.818,5.21,5.21,0,0,1-.807.067A5.021,5.021,0,0,1,247.951,70.352Z" transform="translate(-218.891 -62.4)" fill="#ee1c25"/>
</svg>
