<svg xmlns="http://www.w3.org/2000/svg" width="19.975" height="19.295" viewBox="0 0 19.975 19.295">
  <g id="icon" transform="translate(0 -1)">
    <path id="user-alt-3" d="M8.887,44.24c-2.829,0-5.66,0-8.491.009-.3,0-.332-.1-.352-.366-.137-1.781.927-2.76,2.325-3.516.9-.487,1.883-.765,2.817-1.163a4.735,4.735,0,0,0,1.057-.568A.779.779,0,0,0,6.472,37.5c-.208-.343-.464-.654-.686-.987A6.953,6.953,0,0,1,4.7,30.839,4.268,4.268,0,0,1,9.04,27.475a4.017,4.017,0,0,1,3.792,2.559,6.593,6.593,0,0,1-.7,6.349c-.206.332-.46.632-.678.955a.876.876,0,0,0,.311,1.426,11.413,11.413,0,0,0,2.259.973,7.548,7.548,0,0,1,2.948,1.735,3.157,3.157,0,0,1,.808,2.621c-.014.211-.167.144-.274.144-1.009.005-2.018.005-3.026.005q-2.795,0-5.589,0V44.24Z" transform="translate(-0.033 -23.954)" fill="#ee1c25"/>
    <path id="question" d="M248.061,65.951a4.6,4.6,0,0,0,.531-.126,2.093,2.093,0,0,0,.509-.227,1.257,1.257,0,0,0,.381-.36.917.917,0,0,0,.149-.536.838.838,0,0,0-.344-.724,1.511,1.511,0,0,0-.907-.249c-.155,0-.292.006-.414.016a2.235,2.235,0,0,0-.337.055c-.1.026-.209.055-.315.088s-.22.072-.337.116a3.461,3.461,0,0,1-.254-.6,2.681,2.681,0,0,1-.122-.641c.191-.067.369-.124.531-.171s.321-.087.476-.116a4.557,4.557,0,0,1,.465-.06c.155-.01.321-.016.5-.016a2.922,2.922,0,0,1,2,.6,2.1,2.1,0,0,1,.674,1.653,1.9,1.9,0,0,1-.2.9,2.326,2.326,0,0,1-.481.636,2.866,2.866,0,0,1-.58.421c-.2.106-.362.186-.487.238v1.005a4.417,4.417,0,0,1-.74.067,3.563,3.563,0,0,1-.7-.067Zm-.11,4.4a5.077,5.077,0,0,1-.067-.807,5.175,5.175,0,0,1,.067-.818,5.076,5.076,0,0,1,.807-.067,5.275,5.275,0,0,1,.818.067,5.211,5.211,0,0,1,.067.807,5.134,5.134,0,0,1-.067.818,5.21,5.21,0,0,1-.807.067A5.021,5.021,0,0,1,247.951,70.352Z" transform="translate(-231.271 -61.4)" fill="#ee1c25"/>
  </g>
</svg>
