<svg xmlns="http://www.w3.org/2000/svg" width="20" height="20" viewBox="0 0 20 20">
  <path id="instagram" d="M17.556,0A2.445,2.445,0,0,1,20,2.444V17.556A2.445,2.445,0,0,1,17.556,20H2.444A2.445,2.445,0,0,1,0,17.556V2.444A2.445,2.445,0,0,1,2.444,0H17.556ZM10,3.164c-1.857,0-2.089.008-2.818.041a5.017,5.017,0,0,0-1.659.318,3.5,3.5,0,0,0-2,2,5.019,5.019,0,0,0-.318,1.659c-.033.729-.041.962-.041,2.818s.008,2.089.041,2.818a5.019,5.019,0,0,0,.318,1.659,3.5,3.5,0,0,0,2,2,5.018,5.018,0,0,0,1.659.318c.729.033.962.041,2.818.041s2.089-.008,2.818-.041a5.018,5.018,0,0,0,1.659-.318,3.5,3.5,0,0,0,2-2,5.018,5.018,0,0,0,.318-1.659c.033-.729.041-.962.041-2.818s-.008-2.089-.041-2.818a5.018,5.018,0,0,0-.318-1.659,3.5,3.5,0,0,0-2-2,5.017,5.017,0,0,0-1.659-.318c-.729-.033-.962-.041-2.818-.041ZM10,4.4c1.825,0,2.041.007,2.762.04a3.785,3.785,0,0,1,1.269.235,2.264,2.264,0,0,1,1.3,1.3,3.783,3.783,0,0,1,.235,1.269c.033.721.04.937.04,2.762s-.007,2.041-.04,2.762a3.783,3.783,0,0,1-.235,1.269,2.264,2.264,0,0,1-1.3,1.3,3.783,3.783,0,0,1-1.269.235c-.721.033-.937.04-2.762.04s-2.042-.007-2.762-.04a3.783,3.783,0,0,1-1.269-.235,2.264,2.264,0,0,1-1.3-1.3,3.784,3.784,0,0,1-.235-1.269C4.4,12.041,4.4,11.825,4.4,10s.007-2.041.04-2.762a3.784,3.784,0,0,1,.235-1.269,2.264,2.264,0,0,1,1.3-1.3,3.785,3.785,0,0,1,1.269-.235C7.959,4.4,8.175,4.4,10,4.4ZM10,6.49A3.51,3.51,0,1,0,13.51,10,3.51,3.51,0,0,0,10,6.49Zm0,5.789A2.279,2.279,0,1,1,12.279,10,2.279,2.279,0,0,1,10,12.279Zm4.469-5.928a.82.82,0,1,1-.82-.82.82.82,0,0,1,.82.82Z" fill="#646466" fill-rule="evenodd"/>
</svg>
