<svg xmlns="http://www.w3.org/2000/svg" width="35.138" height="20.213" viewBox="0 0 35.138 20.213">
  <g id="icon" transform="translate(0 -1.432)">
    <path id="user-alt-3" d="M8.79,44.056c-2.8,0-5.6,0-8.4.009-.3,0-.328-.1-.348-.362-.135-1.762.917-2.729,2.3-3.478.887-.481,1.862-.757,2.786-1.15a4.683,4.683,0,0,0,1.045-.562A.771.771,0,0,0,6.4,37.388c-.206-.339-.458-.646-.678-.977A6.876,6.876,0,0,1,4.646,30.8a4.221,4.221,0,0,1,4.294-3.327,3.972,3.972,0,0,1,3.75,2.531,6.52,6.52,0,0,1-.7,6.279c-.2.328-.455.625-.671.945a.866.866,0,0,0,.307,1.41,11.287,11.287,0,0,0,2.234.963,7.464,7.464,0,0,1,2.916,1.716,3.122,3.122,0,0,1,.8,2.592c-.014.209-.165.142-.27.142-1,.005-2,.005-2.993.005q-2.764,0-5.527,0Z" transform="translate(9.49 -22.419)" fill="#ee1c25"/>
    <path id="tick-mark_1_" data-name="tick-mark(1)" d="M71.47,120.455a22.491,22.491,0,0,0-5.067,7.012.14.14,0,0,1-.113.09.029.029,0,0,1-.023.007.127.127,0,0,1-.106-.045l-3.695-3.755a7.53,7.53,0,0,1,1.139-.981l2.028,1.591a23.705,23.705,0,0,1,5.428-4.674,4.314,4.314,0,0,1,.445.589A.15.15,0,0,1,71.47,120.455Z" transform="translate(-36.38 -117.268)" fill="#ee1c25"/>
    <text id="_-18" data-name="-18" transform="translate(13 10.432)" fill="#ee1c25" font-size="9" font-family="IRANSansWebFaNum-Bold, 'IRANSansWeb\(FaNum\)'" font-weight="700"><tspan x="-12.878" y="0">-18</tspan></text>
  </g>
</svg>
