<svg id="icon" xmlns="http://www.w3.org/2000/svg" width="34.934" height="19.131" viewBox="0 0 34.934 19.131">
  <path id="users-alt-3" d="M13.853,214.247c-2.765,0-5.531-.006-8.3.008-.294,0-.324-.1-.344-.357-.133-1.74.906-2.7,2.272-3.436.876-.474,1.837-.748,2.752-1.136a4.679,4.679,0,0,0,1.031-.554.76.76,0,0,0,.224-1.111c-.2-.335-.454-.64-.671-.964a6.8,6.8,0,0,1-1.061-5.542A4.163,4.163,0,0,1,14,197.87a3.917,3.917,0,0,1,3.7,2.5,6.432,6.432,0,0,1-.687,6.2c-.2.324-.449.618-.662.934a.853.853,0,0,0,.3,1.391,11.054,11.054,0,0,0,2.209.953,7.4,7.4,0,0,1,2.879,1.693,3.091,3.091,0,0,1,.79,2.563c-.014.205-.163.139-.266.139-.986.006-1.97.006-2.957.006q-2.731,0-5.459,0v0Zm11.672-2.433h-1.9c-.111,0-.213,0-.28-.125a6.491,6.491,0,0,0-3.566-2.81c-.643-.255-1.291-.5-1.94-.743-.238-.089-.319-.166-.127-.424a8.252,8.252,0,0,0,1.693-5.528,6.182,6.182,0,0,0-1.419-3.674c-.163-.194-.114-.26.061-.38a3.654,3.654,0,0,1,5.5,1.7,5.691,5.691,0,0,1-.829,5.512c-.155.222-.33.432-.474.662a.7.7,0,0,0,.2,1.05,6.213,6.213,0,0,0,1.629.765,8.414,8.414,0,0,1,2.594,1.311,2.727,2.727,0,0,1,1.047,2.5c-.017.205-.133.188-.263.188Zm-15.31-3.841a9.054,9.054,0,0,1-1.477.607,21.973,21.973,0,0,0-2.092.923,5.389,5.389,0,0,0-2.2,2.125.31.31,0,0,1-.3.188c-1.3,0-2.594-.005-3.891,0-.191,0-.2-.083-.211-.233a2.873,2.873,0,0,1,1.541-2.821,8.824,8.824,0,0,1,1.94-.887,8.056,8.056,0,0,0,1.621-.715c.579-.366.671-.709.283-1.275a9.1,9.1,0,0,1-1.081-1.768A5.422,5.422,0,0,1,4.4,199.4a3.663,3.663,0,0,1,5.323-1.264c.158.111.224.172.067.357a6.5,6.5,0,0,0-1.41,5.049,8.044,8.044,0,0,0,1.74,4.3,1.425,1.425,0,0,1,.091.136Z" transform="translate(-0.023 -195.125)" fill="#ee1c25"/>
  <path id="tick-mark_1_" data-name="tick-mark(1)" d="M71.459,120.454a22.462,22.462,0,0,0-5.061,7,.14.14,0,0,1-.113.09.029.029,0,0,1-.023.007.127.127,0,0,1-.105-.045l-3.69-3.75a7.52,7.52,0,0,1,1.137-.979l2.026,1.589a23.674,23.674,0,0,1,5.421-4.668,4.308,4.308,0,0,1,.444.588A.15.15,0,0,1,71.459,120.454Z" transform="translate(-36.573 -119.7)" fill="#ee1c25"/>
</svg>
