<svg xmlns="http://www.w3.org/2000/svg" width="25.03" height="19.449" viewBox="0 0 25.03 19.449">
  <g id="icon" transform="translate(0 0.554)">
    <path id="user-alt-3" d="M8.779,44.034c-2.794,0-5.59,0-8.387.009-.3,0-.328-.1-.347-.361-.135-1.759.916-2.726,2.3-3.473.886-.481,1.859-.756,2.782-1.149A4.677,4.677,0,0,0,6.167,38.5a.77.77,0,0,0,.226-1.123c-.205-.339-.458-.646-.677-.975A6.868,6.868,0,0,1,4.64,30.8a4.215,4.215,0,0,1,4.289-3.322A3.967,3.967,0,0,1,12.674,30a6.512,6.512,0,0,1-.695,6.271c-.2.328-.454.624-.67.944a.865.865,0,0,0,.307,1.409,11.272,11.272,0,0,0,2.231.961A7.455,7.455,0,0,1,16.76,41.3a3.118,3.118,0,0,1,.8,2.589c-.014.209-.165.142-.27.142-1,.005-1.993.005-2.989.005q-2.76,0-5.52,0v-.005Z" transform="translate(-0.033 -25.148)" fill="#ee1c25"/>
    <path id="tick-mark_1_" data-name="tick-mark(1)" d="M71.348,120.445a22.186,22.186,0,0,0-5,6.917.139.139,0,0,1-.111.089.028.028,0,0,1-.022.007.125.125,0,0,1-.1-.045l-3.645-3.7a7.428,7.428,0,0,1,1.123-.967l2,1.569a23.383,23.383,0,0,1,5.355-4.611,4.255,4.255,0,0,1,.439.581A.148.148,0,0,1,71.348,120.445Z" transform="translate(-46.365 -120.254)" fill="#ee1c25"/>
  </g>
</svg>
