<svg id="_2262728878496" xmlns="http://www.w3.org/2000/svg" width="43.853" height="77.343" viewBox="0 0 43.853 77.343">
  <g id="Group_80" data-name="Group 80" transform="translate(0)">
    <path id="Path_794" data-name="Path 794" d="M142.78,42.282c0,10.671,6.306,19.316,14.087,19.316s14.087-8.651,14.087-19.316S164.648,22.96,156.867,22.96,142.78,31.611,142.78,42.282Z" transform="translate(-135.319 -12.404)" fill="#fefefe"/>
    <path id="Path_795" data-name="Path 795" d="M154.034,10.43a15.143,15.143,0,0,1,1.757-.582c2.5-.686,3.435-1.947,3.783-2.718.343.771,1.28,2.026,3.784,2.718a15.421,15.421,0,0,1,6.092,3.208L165.2,18.181v.006a10.775,10.775,0,0,0-11.253,0v-.006L149.7,13.056a14.967,14.967,0,0,1,4.335-2.626Z" transform="translate(-138.002 -6.265)" fill="#fff688"/>
    <path id="Path_796" data-name="Path 796" d="M164.49,56.341a7.528,7.528,0,0,1-2.559.349c-.275-.012-.545-.037-.814-.073-.012,0-.031,0-.037.018l-.655,1.022a.192.192,0,0,1-.159.086.178.178,0,0,1-.159-.086l-.655-1.022c-.012-.012-.025-.024-.037-.018-.269.037-.539.061-.814.073a7.38,7.38,0,0,1-2.559-.349.075.075,0,0,1,.031-.147.528.528,0,0,0,.092.006,7.2,7.2,0,0,0,2.541-.294.035.035,0,0,0,.006-.067,7.995,7.995,0,0,1-1.9-12.667.128.128,0,0,1,.2.153,8.953,8.953,0,0,0,2.265,11.246.039.039,0,0,0,.061-.031l-.214-11.479a.133.133,0,0,1,.086-.122,2.219,2.219,0,0,0,.967-.692.12.12,0,0,1,.184,0,2.269,2.269,0,0,0,.967.692.125.125,0,0,1,.086.122L161.2,54.541a.039.039,0,0,0,.061.031,8.973,8.973,0,0,0,2.265-11.246.125.125,0,0,1,.2-.153,7.995,7.995,0,0,1-1.9,12.667c-.031.018-.031.061.006.067a7.205,7.205,0,0,0,2.541.294.528.528,0,0,0,.092-.006.075.075,0,0,1,.031.147h-.006Zm-4.23-14.571h0a1.2,1.2,0,0,1-.931.484,1.132,1.132,0,0,1-.68-.239,1.48,1.48,0,0,1-.459-.618,1.7,1.7,0,0,1-.129-.6.081.081,0,0,1,.153-.037,1.15,1.15,0,0,0,1.035.68,1.136,1.136,0,0,0,.937-.508.1.1,0,0,1,.073-.037.087.087,0,0,1,.073.037,1.121,1.121,0,0,0,.937.508,1.15,1.15,0,0,0,1.035-.68.08.08,0,0,1,.153.037,1.84,1.84,0,0,1-.122.6,1.48,1.48,0,0,1-.459.618,1.146,1.146,0,0,1-.68.239,1.167,1.167,0,0,1-.924-.484h0Zm7.212,7.659h0a8.322,8.322,0,0,0-2.645-6.312.184.184,0,0,1,.2-.306,6.823,6.823,0,0,1,1.433,11.565.183.183,0,0,1-.269-.239,8.98,8.98,0,0,0,1.28-4.708h0Zm-13.138,4.708h0a.183.183,0,0,1-.269.239A6.823,6.823,0,0,1,155.5,42.811a.184.184,0,0,1,.2.306,8.328,8.328,0,0,0-2.639,6.312,8.98,8.98,0,0,0,1.28,4.708Z" transform="translate(-138.692 -19.288)" fill="#ed3237"/>
    <path id="Path_797" data-name="Path 797" d="M160.518,17.958c-.018.135-.043.19-.061.19s-.043-.073-.055-.2a6.275,6.275,0,0,0-.275-1.347,4.723,4.723,0,0,0-.263-.655,3.36,3.36,0,0,0-.349-.594.293.293,0,0,1-.037-.282c.024-.1.055-.2.086-.3a2.51,2.51,0,0,0,.086-.306.22.22,0,0,1,.055-.11c.018-.012.043.012.08.067a4.366,4.366,0,0,1,.41.79,5.57,5.57,0,0,1,.4,1.831,4.112,4.112,0,0,1-.067.918h0Z" transform="translate(-141.785 -9.067)" fill="#ed3237"/>
    <path id="Path_798" data-name="Path 798" d="M164.525,15.151a.686.686,0,0,1-.343.282.456.456,0,0,1-.435-.129c-.037-.037-.061-.055-.061-.043l-.073.073a.629.629,0,0,1-.263.2c-.025.012-.037.012-.037.018a.142.142,0,0,0,.012.055,5.044,5.044,0,0,1,.227,1.151,4.343,4.343,0,0,1-.073,1.188c-.025.11-.043.153-.061.147s-.031-.067-.037-.171a6.545,6.545,0,0,0-.288-1.451A4.367,4.367,0,0,0,162.5,15.3a.333.333,0,0,1-.061-.288c.025-.1.055-.2.092-.306s.067-.214.11-.331a.327.327,0,0,1,.037-.08c.012-.012.024,0,.049.037a1.463,1.463,0,0,0,.263.245.588.588,0,0,0,.318.129.389.389,0,0,0,.171-.031.589.589,0,0,0,.153-.1.676.676,0,0,0,.122-.141.8.8,0,0,0,.086-.159c.025-.067.043-.092.061-.08a.331.331,0,0,1,.067.08,1.064,1.064,0,0,0,.141.2.284.284,0,0,0,.226.08.437.437,0,0,0,.416-.288c.018-.049.037-.08.055-.08s.024.024.018.086a1.746,1.746,0,0,1-.092.459,1.586,1.586,0,0,1-.2.422h0Z" transform="translate(-142.94 -9.003)" fill="#ed3237"/>
    <path id="Path_799" data-name="Path 799" d="M166.93,17.712a1.68,1.68,0,0,1-.171.331c-.08.1-.147.147-.2.147a.515.515,0,0,1-.214-.073c-.067-.031-.135-.067-.19-.1l-.171-.1c-.049-.024-.067-.049-.067-.061a.349.349,0,0,1,.024-.1c.043-.1.092-.208.135-.312s.092-.208.141-.312c.025-.061.055-.092.08-.1a.177.177,0,0,1,.116.037c.08.043.159.086.245.135a1.052,1.052,0,0,1,.227.171.189.189,0,0,1,.073.153,1.081,1.081,0,0,1-.031.178h0Z" transform="translate(-144.292 -10.107)" fill="#ed3237"/>
    <path id="Path_800" data-name="Path 800" d="M170.664,14.79a1.034,1.034,0,0,1-.018.2.378.378,0,0,1-.086.171,4.357,4.357,0,0,0-.747,1.292,7.585,7.585,0,0,0-.373,1.457c-.025.135-.049.2-.08.2s-.055-.073-.073-.214a5,5,0,0,0-.973-2.473.382.382,0,0,1-.067-.147.415.415,0,0,1,.006-.171c.012-.086.031-.184.055-.288s.043-.22.067-.343c.012-.08.043-.086.086-.024a6.639,6.639,0,0,1,.943,2.063q.028.083.055,0a3.368,3.368,0,0,1,.165-.557,5.766,5.766,0,0,1,.251-.569,4.373,4.373,0,0,1,.318-.545,5.2,5.2,0,0,1,.367-.5c.043-.055.073-.08.086-.073s.018.037.018.1v.416Z" transform="translate(-145.191 -9.033)" fill="#ed3237"/>
    <path id="Path_801" data-name="Path 801" d="M173.128,38.209a10.982,10.982,0,0,0,.612-.986,1.169,1.169,0,0,0,.184-.588,1.145,1.145,0,0,0-.367-.722,1.881,1.881,0,0,1-.147-.178,1.393,1.393,0,0,1-.239-1.059c.012-.055.024-.116.037-.171a1.435,1.435,0,0,0,.061-.435c-.012-.282-.184-.569-.459-.575a.561.561,0,0,0-.269.086,3.423,3.423,0,0,0-.373.269c-.086.067-.171.135-.251.19a.628.628,0,0,1-.392.153,1.467,1.467,0,0,0-.312-.331,2.2,2.2,0,0,1-.239-.239,1.643,1.643,0,0,1-.19-.373c-.031-.073-.067-.147-.1-.22a1.726,1.726,0,0,1,.116-.655,2.53,2.53,0,0,1,.214-.4c.049-.08.1-.159.147-.245a4.392,4.392,0,0,0,.343-.918,1.507,1.507,0,0,0-.024-1.28.972.972,0,0,0-.122-.147.58.58,0,0,1-.129-.19.647.647,0,0,1,.031-.349,9.838,9.838,0,0,0,.184-1.047.783.783,0,0,0-.673-.986c-.067-.024-.135-.049-.2-.08a1.128,1.128,0,0,1-.606-.729,1.351,1.351,0,0,1-.031-.153,1.481,1.481,0,0,0-.11-.38.508.508,0,0,0-.631-.269.574.574,0,0,0-.2.171,3.111,3.111,0,0,0-.233.373c-.055.092-.1.178-.159.263a.845.845,0,0,1-.324.294,1.7,1.7,0,0,0-.41-.135,1.491,1.491,0,0,1-.306-.092,1.322,1.322,0,0,1-.318-.214A2.282,2.282,0,0,0,167,25.7a.013.013,0,0,1-.012-.012,1.9,1.9,0,0,1,.043-.337,2.686,2.686,0,0,1,.153-.422c.037-.086.08-.178.11-.269a4.484,4.484,0,0,0,.2-.961,1.519,1.519,0,0,0-.214-1.261.921.921,0,0,0-.141-.129.591.591,0,0,1-.159-.171.71.71,0,0,1-.024-.349,8.733,8.733,0,0,0,.024-1.059,1.029,1.029,0,0,0-.135-.545,1.009,1.009,0,0,0-.68-.337c-.067-.012-.141-.024-.208-.043a1.135,1.135,0,0,1-.71-.631,1.441,1.441,0,0,1-.055-.147,1.17,1.17,0,0,0-.165-.355.51.51,0,0,0-.661-.178.543.543,0,0,0-.178.2,2.905,2.905,0,0,0-.178.4c-.037.1-.073.19-.116.282a.784.784,0,0,1-.282.337,1.644,1.644,0,0,0-.422-.067,2.358,2.358,0,0,1-.318-.043,1.465,1.465,0,0,1-.343-.165,1.7,1.7,0,0,0-.257-.135.734.734,0,0,0-.833.086c-.306.324-.067.771.11,1.1a.993.993,0,0,1,.061.11,1.588,1.588,0,0,1,.171.82.087.087,0,0,0-.037-.012,5.04,5.04,0,0,0-1.586-.2c-.214-.006-.355.092-.367.251a1.1,1.1,0,0,0,.422.9,3.015,3.015,0,0,1,.729,1.1c.049.122.086.251.122.373a2.84,2.84,0,0,0,.38.875,2.926,2.926,0,0,0,1.01.784,3.171,3.171,0,0,1,.784.539c.037.037.067.073.1.11a1.8,1.8,0,0,0,.294.275,1.6,1.6,0,0,0,.7.214c.092.012.184.024.269.043a2.688,2.688,0,0,1,1.635.778,1.239,1.239,0,0,1-.031.263.128.128,0,0,1-.037-.024,5.332,5.332,0,0,0-1.543-.435c-.208-.037-.367.043-.4.19a1.111,1.111,0,0,0,.282.955,3.035,3.035,0,0,1,.557,1.2c.024.129.049.263.067.386a2.692,2.692,0,0,0,.245.918,2.831,2.831,0,0,0,.882.924,3.2,3.2,0,0,1,.692.649l.086.122a1.545,1.545,0,0,0,.257.318,1.583,1.583,0,0,0,.655.312c.092.024.178.055.263.086.6.233.943.527,1.053.9a2.133,2.133,0,0,1-.208.429.021.021,0,0,1-.006-.012,5.275,5.275,0,0,0-1.212-1.182.4.4,0,0,0-.3-.1.265.265,0,0,0-.171.1,1.37,1.37,0,0,0-.147,1.1,3.841,3.841,0,0,1-.012,1.518c-.031.147-.067.294-.1.435a3.757,3.757,0,0,0-.178,1.053,3.535,3.535,0,0,0,.4,1.359,4.186,4.186,0,0,1,.355,1,1.651,1.651,0,0,1,.024.171,1.885,1.885,0,0,0,.092.441,1.773,1.773,0,0,0,.453.631c.073.067.135.141.2.208a1.318,1.318,0,0,1,.361.759,8.649,8.649,0,0,0-.612-.71.4.4,0,0,0-.282-.147.269.269,0,0,0-.19.08A1.388,1.388,0,0,0,167.4,42.4a3.875,3.875,0,0,1-.251,1.494c-.055.141-.116.282-.171.41a3.754,3.754,0,0,0-.343,1.016,3.52,3.52,0,0,0,.184,1.408,3.932,3.932,0,0,1,.19,1.047v.171a1.9,1.9,0,0,0,.018.453,1.785,1.785,0,0,0,.349.7c.055.08.11.159.159.239a2.269,2.269,0,0,1,.159,1.622l-.006.006V50.95A5.4,5.4,0,0,0,167.3,49.3a.418.418,0,0,0-.2-.245.234.234,0,0,0-.2,0,1.364,1.364,0,0,0-.71.845,3.879,3.879,0,0,1-.82,1.28c-.1.1-.214.208-.318.306a3.924,3.924,0,0,0-.716.8,3.52,3.52,0,0,0-.386,1.359,4,4,0,0,1-.239,1.035c-.024.055-.043.1-.073.159a2.317,2.317,0,0,0-.159.422,1.828,1.828,0,0,0,.049.778,2.537,2.537,0,0,1,.055.282,2.606,2.606,0,0,1-.7,1.684h-.006a.021.021,0,0,1,.006-.012,5.141,5.141,0,0,0,.171-1.684.4.4,0,0,0-.1-.294.244.244,0,0,0-.19-.067,1.389,1.389,0,0,0-.949.563,3.814,3.814,0,0,1-1.2.937c-.129.067-.269.122-.4.184a2.785,2.785,0,0,0-1.751,1.677,3.947,3.947,0,0,1-.569.9c-.037.043-.08.086-.116.122a2.062,2.062,0,0,0-.294.349,1.759,1.759,0,0,0-.208.747c-.012.1-.024.19-.043.282a1.426,1.426,0,0,1-.5.955v-.8a.73.73,0,0,0-.729-.729h-1.555a3.606,3.606,0,0,1-.973-.11,4.792,4.792,0,0,1-.527-.147,2.058,2.058,0,0,0-.753-.141,2.029,2.029,0,0,0-.765.141,3.981,3.981,0,0,1-.527.147,3.646,3.646,0,0,1-.98.11h-1.555a.726.726,0,0,0-.729.729v1.3c-.086-.055-.171-.116-.251-.178a4.669,4.669,0,0,0-1.371-3.673,9.019,9.019,0,0,0-1.567-1.2,5.585,5.585,0,0,1-2-1.818.186.186,0,0,0-.19-.092.17.17,0,0,0-.135.165,7.94,7.94,0,0,0,.018,1.182,4.738,4.738,0,0,0,.331,1.108,9.361,9.361,0,0,1-.943-.288,4.835,4.835,0,0,1-.753-.386,4.281,4.281,0,0,0,.11-3.845,9.481,9.481,0,0,0-1.053-1.671,5.532,5.532,0,0,1-1.243-2.394.169.169,0,0,0-.147-.147.177.177,0,0,0-.184.1,8.139,8.139,0,0,0-.392,1.114A4.906,4.906,0,0,0,137.8,52.3a8.538,8.538,0,0,1-.784-.6,4.259,4.259,0,0,1-.557-.6,4.284,4.284,0,0,0,1.3-3.508,9.067,9.067,0,0,0-.435-1.928,5.512,5.512,0,0,1-.367-2.675.175.175,0,0,0-.3-.153,7.631,7.631,0,0,0-.741.918,4.72,4.72,0,0,0-.453,1.059c-.19-.269-.38-.545-.539-.826a4.059,4.059,0,0,1-.331-.778,4.594,4.594,0,0,0,2.4-3.055,8.806,8.806,0,0,0,.19-1.965,5.561,5.561,0,0,1,.49-2.657.185.185,0,0,0-.024-.208.177.177,0,0,0-.208-.031,9.255,9.255,0,0,0-1,.637,4.571,4.571,0,0,0-.759.863c-.092-.312-.19-.637-.251-.955a3.743,3.743,0,0,1-.067-.778,4.287,4.287,0,0,0,2.877-2.394,9.494,9.494,0,0,0,.588-1.886,5.589,5.589,0,0,1,1.016-2.5.175.175,0,0,0,.012-.214.172.172,0,0,0-.2-.067,9.136,9.136,0,0,0-1.1.422,4.749,4.749,0,0,0-.918.692,8.949,8.949,0,0,1-.055-.986,4.318,4.318,0,0,1,.1-.857,2.97,2.97,0,0,0,.465.031,4.168,4.168,0,0,0,2.786-1.12,9.223,9.223,0,0,0,1.182-1.445,5.221,5.221,0,0,1,1.769-1.824.173.173,0,0,0,.092-.19.17.17,0,0,0-.159-.141,8.192,8.192,0,0,0-1.12-.018,4.441,4.441,0,0,0-1.035.275,8.426,8.426,0,0,1,.294-.863,3.761,3.761,0,0,1,.582-.955.8.8,0,0,1,.073-.086,2.7,2.7,0,0,1,.575-.575.2.2,0,0,0,.092-.233A.184.184,0,0,0,143.08,20a8.166,8.166,0,0,0-2.926,1.108,2.76,2.76,0,0,0-.135-1.886,3.728,3.728,0,0,0-.331-.465.176.176,0,0,0-.184-.061.186.186,0,0,0-.135.141,3.87,3.87,0,0,1-1.053,2.02c-.184.184-.386.355-.588.52s-.422.349-.612.545a4.911,4.911,0,0,0-.7,5,8.205,8.205,0,0,0-.961,1.108,2.914,2.914,0,0,0-.882-1.818,4.126,4.126,0,0,0-.508-.324.166.166,0,0,0-.19.012.187.187,0,0,0-.067.184,4.153,4.153,0,0,1-.233,2.406,7.73,7.73,0,0,1-.373.747c-.135.251-.269.508-.386.771a4.859,4.859,0,0,0,1.114,5.051,8.132,8.132,0,0,0-.606,1.108,2.934,2.934,0,0,0-1.224-1.6,4.083,4.083,0,0,0-.563-.214.17.17,0,0,0-.184.049.177.177,0,0,0-.031.19,4.1,4.1,0,0,1,.257,2.406c-.055.269-.135.545-.214.8s-.165.551-.22.839a5.128,5.128,0,0,0,2.179,4.83,9,9,0,0,0-.294,1.488,2.931,2.931,0,0,0-1.665-1.139,3.984,3.984,0,0,0-.6-.031.175.175,0,0,0-.159.1.168.168,0,0,0,.031.19,4.181,4.181,0,0,1,1,2.2,7.5,7.5,0,0,1,.049.833,8.257,8.257,0,0,0,.049.863,5.126,5.126,0,0,0,3.6,3.845,8.843,8.843,0,0,0,.22,1.414,2.915,2.915,0,0,0-1.953-.514,4.155,4.155,0,0,0-.575.171.17.17,0,0,0-.116.153.179.179,0,0,0,.092.171,4.138,4.138,0,0,1,1.678,1.739c.122.245.227.514.331.771a8.151,8.151,0,0,0,.337.8,4.859,4.859,0,0,0,4.224,2.449c.129,0,.263-.006.392-.018a8.962,8.962,0,0,0,.747,1.371,2.894,2.894,0,0,0-2.008.2,4.609,4.609,0,0,0-.484.361.173.173,0,0,0-.055.184.186.186,0,0,0,.147.129,4.143,4.143,0,0,1,2.179,1.053,6.67,6.67,0,0,1,.569.606c.19.214.38.429.594.631a5.19,5.19,0,0,0,4.035,1.5,18.506,18.506,0,0,0,3.912-.514,1.818,1.818,0,0,1,.7.631h.006a.328.328,0,0,0,.061.122l.1.122a4.8,4.8,0,0,1-3.061.269c-.588-.1-.8.11-.869.239a.7.7,0,0,0,.135.729,6,6,0,0,1-4.157-.2.161.161,0,0,0-.2.092.158.158,0,0,0,.08.2l2.063.986-.582.655a.166.166,0,0,0-.031.159.144.144,0,0,0,.116.1,11.587,11.587,0,0,0,2.094.208,4.485,4.485,0,0,0,2.559-.618.358.358,0,0,0,.147-.343.378.378,0,0,0-.245-.294c-.092-.037-.178-.073-.263-.11.08.006.159.006.233.006a3.283,3.283,0,0,0,2.755-1.108.744.744,0,0,0,.661.116l.294-.08.3.08a.722.722,0,0,0,.227.031.7.7,0,0,0,.435-.141,3.261,3.261,0,0,0,2.749,1.108c.08,0,.153-.006.239-.006-.086.037-.171.073-.263.11a.367.367,0,0,0-.245.294.354.354,0,0,0,.141.343,4.493,4.493,0,0,0,2.565.618,10.99,10.99,0,0,0,2.094-.208.155.155,0,0,0,.116-.1.166.166,0,0,0-.031-.159l-.582-.655L162,66.677a.162.162,0,0,0,.08-.208.164.164,0,0,0-.2-.092,6,6,0,0,1-4.157.2.682.682,0,0,0,.135-.729c-.067-.135-.282-.337-.869-.239a4.876,4.876,0,0,1-3.067-.269l.1-.122a.384.384,0,0,0,.061-.122h.006a1.7,1.7,0,0,1,.637-.588,2.607,2.607,0,0,0,1.157.257,4.642,4.642,0,0,0,1.788-.416,1.191,1.191,0,0,0,.239-.147,1.584,1.584,0,0,1,.863-.147,2.6,2.6,0,0,1,.465.092c.092.024.19.055.294.073a4.682,4.682,0,0,0,1.053.061,1.813,1.813,0,0,0,1.347-.41c.049-.055.092-.11.135-.159a.83.83,0,0,1,.19-.2.774.774,0,0,1,.392-.08A10.638,10.638,0,0,0,163.8,63.3a1.176,1.176,0,0,0,.575-.22,1.147,1.147,0,0,0,.337-.741c.012-.08.031-.153.049-.227a1.436,1.436,0,0,1,.68-.851,1.285,1.285,0,0,1,.159-.08,1.519,1.519,0,0,0,.38-.227.537.537,0,0,0,.159-.716.53.53,0,0,0-.239-.159,3.034,3.034,0,0,0-.447-.122,2.023,2.023,0,0,1-.306-.08.776.776,0,0,1-.361-.214,1.932,1.932,0,0,0,.067-.447,1.818,1.818,0,0,1,.037-.331,1.522,1.522,0,0,1,.171-.386l.037-.073a1.59,1.59,0,0,1,.71-.4,2.3,2.3,0,0,1,.471-.067,2.488,2.488,0,0,0,.3-.031,5.158,5.158,0,0,0,1.01-.288,1.813,1.813,0,0,0,1.139-.833,1.563,1.563,0,0,0,.073-.2.864.864,0,0,1,.11-.251.884.884,0,0,1,.343-.208,10.192,10.192,0,0,0,1.041-.508,1.169,1.169,0,0,0,.471-.4,1.15,1.15,0,0,0,.073-.814c-.012-.08-.024-.153-.031-.227a1.42,1.42,0,0,1,.361-1.029,1.158,1.158,0,0,1,.122-.122,1.712,1.712,0,0,0,.282-.337.541.541,0,0,0-.086-.729.619.619,0,0,0-.275-.073,2.8,2.8,0,0,0-.459.031c-.11.012-.214.024-.318.031a.835.835,0,0,1-.416-.086,1.524,1.524,0,0,0-.086-.447,1.361,1.361,0,0,1-.073-.324,1.741,1.741,0,0,1,.037-.422,2.73,2.73,0,0,0,.043-.312v-.073h0a2.158,2.158,0,0,1,.3-.294,2.271,2.271,0,0,1,.41-.245,2.918,2.918,0,0,0,.269-.147,5.337,5.337,0,0,0,.814-.661,1.836,1.836,0,0,0,.722-1.212c0-.073-.006-.141-.012-.208a.82.82,0,0,1,.006-.276.848.848,0,0,1,.233-.324,10.372,10.372,0,0,0,.759-.875,1.2,1.2,0,0,0,.276-.551,1.165,1.165,0,0,0-.251-.778c-.043-.067-.08-.129-.116-.2a1.423,1.423,0,0,1-.067-1.09c.018-.055.043-.11.067-.165a1.708,1.708,0,0,0,.129-.422.541.541,0,0,0-.367-.637.585.585,0,0,0-.282.037,2.368,2.368,0,0,0-.41.214c-.1.055-.19.11-.282.153a.709.709,0,0,1-.41.08,1.832,1.832,0,0,0-.257-.373,2.283,2.283,0,0,1-.2-.269,1.524,1.524,0,0,1-.122-.367.613.613,0,0,1,.08-.092,2.266,2.266,0,0,1,.367-.306c.08-.061.159-.122.239-.19a5.033,5.033,0,0,0,.7-.784,1.806,1.806,0,0,0,.52-1.31c-.012-.073-.031-.141-.043-.2a.887.887,0,0,1-.037-.269.764.764,0,0,1,.184-.355h.006Zm-4.286-12.03h0c.061-.092.116-.19.171-.282a2.178,2.178,0,0,1,.208-.331.261.261,0,0,1,.086-.08c.061-.024.165.037.214.129a.988.988,0,0,1,.08.288c.012.055.024.116.037.171a1.413,1.413,0,0,0,.784.943c.073.037.147.061.22.092a.745.745,0,0,1,.441.275.7.7,0,0,1,.024.38,7.385,7.385,0,0,1-.184,1.016.914.914,0,0,0-.018.514.931.931,0,0,0,.19.3,1.254,1.254,0,0,1,.092.116,1.236,1.236,0,0,1-.012,1.01,4.107,4.107,0,0,1-.318.857c-.043.08-.092.159-.141.233a2.67,2.67,0,0,0-.245.453,2.43,2.43,0,0,0-.11.4.654.654,0,0,0-.165-.1,7.786,7.786,0,0,0,.1-1.935,1.807,1.807,0,0,0-.135-.747,1.779,1.779,0,0,0-.1-.184c-.037-.061-.073-.116-.1-.178a1.289,1.289,0,0,1-.031-.618,1.342,1.342,0,0,0-.11-.857,1.408,1.408,0,0,0-.624-.478.991.991,0,0,1-.508-.386.756.756,0,0,1-.061-.251,1.16,1.16,0,0,0-.129-.4,1.3,1.3,0,0,0,.343-.343h0ZM164.171,19.5h0a3.194,3.194,0,0,0,.122-.306,1.886,1.886,0,0,1,.159-.355.223.223,0,0,1,.073-.092c.055-.037.171.012.227.092a.944.944,0,0,1,.122.275c.018.055.037.11.061.165a1.416,1.416,0,0,0,.918.814c.08.024.153.037.233.055a.754.754,0,0,1,.478.208.65.65,0,0,1,.08.373,9.658,9.658,0,0,1-.024,1.029,1.006,1.006,0,0,0,.055.514.931.931,0,0,0,.239.269c.037.037.08.067.11.1a1.246,1.246,0,0,1,.135,1,4,4,0,0,1-.184.894c-.031.086-.067.171-.1.251a2.457,2.457,0,0,0-.171.478,1.508,1.508,0,0,0-.037.282.935.935,0,0,0-.184-.018,8.021,8.021,0,0,0-.2-1.855,1.785,1.785,0,0,0-.245-.716,1.959,1.959,0,0,0-.135-.165,1.516,1.516,0,0,1-.129-.165,1.306,1.306,0,0,1-.122-.606,1.287,1.287,0,0,0-.239-.833,1.4,1.4,0,0,0-.692-.373,1.008,1.008,0,0,1-.557-.306.847.847,0,0,1-.1-.239,1.179,1.179,0,0,0-.184-.373,1.207,1.207,0,0,0,.282-.392h0Zm-2.284.931h0a.7.7,0,0,1-.061-.116c-.171-.318-.294-.575-.159-.722.1-.11.312-.08.465-.012.073.037.147.08.227.122a1.406,1.406,0,0,0,.422.2,1.958,1.958,0,0,0,.38.055.7.7,0,0,1,.478.135.711.711,0,0,1,.135.282,1.414,1.414,0,0,0,.135.318,1.24,1.24,0,0,0,.729.435,1.177,1.177,0,0,1,.545.275,1.07,1.07,0,0,1,.159.643,1.545,1.545,0,0,0,.171.753,1.366,1.366,0,0,0,.159.2,1.065,1.065,0,0,1,.11.135,1.481,1.481,0,0,1,.2.594,7.311,7.311,0,0,1,.184,1.91h0a.5.5,0,0,0-.159.2,3.6,3.6,0,0,0-1.022-.759c-.061-.037-.122-.067-.184-.1a.815.815,0,0,1-.618-.735,1.082,1.082,0,0,0-.294-.618,1.115,1.115,0,0,0-.373-.184.908.908,0,0,1-.257-.116.873.873,0,0,1-.227-.533c-.018-.1-.043-.2-.067-.294a1.749,1.749,0,0,0-.863-.973,1.973,1.973,0,0,0-.2-1.108h0Zm2.773,5.914h0a2.452,2.452,0,0,0-.294-.049,1.346,1.346,0,0,1-.563-.159,1.368,1.368,0,0,1-.239-.227c-.037-.043-.073-.08-.116-.122a3.677,3.677,0,0,0-.857-.588,2.588,2.588,0,0,1-.906-.692,2.584,2.584,0,0,1-.331-.784c-.037-.129-.08-.263-.129-.392a3.292,3.292,0,0,0-.808-1.224.859.859,0,0,1-.331-.594h.049a4.841,4.841,0,0,1,1.488.184,1.53,1.53,0,0,1,1,.918c.024.08.043.171.061.263a1.161,1.161,0,0,0,.343.722,1.316,1.316,0,0,0,.349.171.559.559,0,0,1,.453.575,1.636,1.636,0,0,0,.171.484,1.432,1.432,0,0,0,.618.465,1.524,1.524,0,0,1,.171.092,2.285,2.285,0,0,1,1.194,1.133h0c.024.086.055.165.08.239.012.043.031.08.043.116a.578.578,0,0,0,.018.055,4.607,4.607,0,0,0-1.5-.575h.006Zm1.782.41h0a.891.891,0,0,0-.043-.116c-.122-.343-.208-.612-.049-.741a.439.439,0,0,1,.465.055,2.2,2.2,0,0,1,.2.153,1.924,1.924,0,0,0,.386.257,1.95,1.95,0,0,0,.367.11.732.732,0,0,1,.453.208.693.693,0,0,1,.092.294,1.317,1.317,0,0,0,.086.331,1.227,1.227,0,0,0,.655.539,1.14,1.14,0,0,1,.5.355,1.065,1.065,0,0,1,.061.661,1.231,1.231,0,0,0,.178,1q.055.083.092.147a1.478,1.478,0,0,1,.1.618,7.329,7.329,0,0,1-.1,1.892.022.022,0,0,0-.018.006.517.517,0,0,0-.331.263,2.2,2.2,0,0,0-.735-.967c-.055-.043-.116-.08-.171-.122a1.093,1.093,0,0,1-.429-.422,1.152,1.152,0,0,1-.073-.4,1.088,1.088,0,0,0-.2-.655.969.969,0,0,0-.343-.239,1,1,0,0,1-.239-.153.889.889,0,0,1-.147-.563c-.006-.1-.012-.2-.024-.306a1.783,1.783,0,0,0-.7-1.09,1.912,1.912,0,0,0-.031-1.126v.012Zm1.861,6.263h0c-.092-.037-.19-.061-.282-.092a1.3,1.3,0,0,1-.533-.245,1.5,1.5,0,0,1-.2-.257c-.031-.049-.061-.092-.092-.135a3.633,3.633,0,0,0-.759-.71,2.717,2.717,0,0,1-.8-.814,2.693,2.693,0,0,1-.208-.82c-.024-.135-.043-.269-.067-.41a3.375,3.375,0,0,0-.618-1.335.835.835,0,0,1-.233-.637.1.1,0,0,1,.043.006,4.879,4.879,0,0,1,1.445.4,1.54,1.54,0,0,1,.857,1.059c.012.086.018.178.024.269a.9.9,0,0,0,.557.986.9.9,0,0,1,.245.165.763.763,0,0,1,.122.465,1.468,1.468,0,0,0,.1.508,1.5,1.5,0,0,0,.539.551,1.517,1.517,0,0,1,.159.116,1.843,1.843,0,0,1,.753,1.426c-.006.043-.006.08-.012.116a.6.6,0,0,1-.012.1,2.357,2.357,0,0,0-1.041-.71h.006Zm1.371.778h0a1.091,1.091,0,0,1,.012-.141c.031-.331.061-.741.269-.8.135-.037.282.116.373.276.012.024.025.055.043.086a.624.624,0,0,0,.055.129.3.3,0,0,1,.018.043,1.541,1.541,0,0,0,.52.729.817.817,0,0,1,.324.441.968.968,0,0,1-.049.361,1.2,1.2,0,0,0,.294,1.231,1.333,1.333,0,0,1,.3.612,1.368,1.368,0,0,1-.227.729,1.953,1.953,0,0,0-.275.808,2.216,2.216,0,0,0,.012.288l.018.2a2.014,2.014,0,0,1-.171.7,13.576,13.576,0,0,1-.594,1.4.494.494,0,0,0-.263-.049.551.551,0,0,0-.38.22,4.768,4.768,0,0,0-.318-.9c-.031-.067-.067-.135-.1-.2a1.505,1.505,0,0,1-.214-.649,1.627,1.627,0,0,1,.11-.453,1.312,1.312,0,0,0,.1-.753,1.216,1.216,0,0,0-.2-.4,1.007,1.007,0,0,1-.147-.275,1.167,1.167,0,0,1,.11-.667,2.858,2.858,0,0,0,.1-.324,2.172,2.172,0,0,0-.178-1.451,2.229,2.229,0,0,0,.459-1.175h0Zm-1,7.359h0c-.067-.08-.147-.159-.214-.233a1.5,1.5,0,0,1-.38-.508,1.627,1.627,0,0,1-.073-.367c-.006-.061-.012-.122-.024-.184a4.324,4.324,0,0,0-.373-1.09,3.285,3.285,0,0,1-.373-1.231,3.172,3.172,0,0,1,.165-.961c.043-.147.08-.3.11-.453a4.173,4.173,0,0,0,.012-1.653,1.147,1.147,0,0,1,.055-.784c.006.006.012.012.018.012a4.864,4.864,0,0,1,1.133,1.108,1.926,1.926,0,0,1,.324,1.518c-.024.1-.061.19-.1.294a1.4,1.4,0,0,0-.116.875,1.267,1.267,0,0,0,.2.373.941.941,0,0,1,.153.288,1.061,1.061,0,0,1-.092.563,1.714,1.714,0,0,0-.122.557,1.7,1.7,0,0,0,.251.814c.037.067.067.129.1.2a2.475,2.475,0,0,1,.288,1.671c-.012.037-.018.067-.031.1l-.018.055h0a2.037,2.037,0,0,1-.4.667c0-.006,0-.012-.006-.012-.024-.049-.049-.092-.073-.141a1.643,1.643,0,0,0-.422-1.475h.006Zm-.875,8.008h0c-.055-.092-.116-.178-.178-.263a1.557,1.557,0,0,1-.294-.563,1.5,1.5,0,0,1-.012-.373c0-.061.006-.122.006-.19a4.353,4.353,0,0,0-.2-1.133,3.286,3.286,0,0,1-.171-1.273,3.328,3.328,0,0,1,.312-.918c.061-.141.122-.282.184-.429a4.224,4.224,0,0,0,.276-1.629,1.11,1.11,0,0,1,.178-.759l.018.018a5.086,5.086,0,0,1,.949,1.267,1.942,1.942,0,0,1,.08,1.549c-.043.092-.092.184-.141.275a1.41,1.41,0,0,0-.257.851,1.326,1.326,0,0,0,.135.4.939.939,0,0,1,.1.312,1.1,1.1,0,0,1-.178.545,1.407,1.407,0,0,0-.092,1.371c.024.067.043.135.067.2a2.7,2.7,0,0,1-.122,1.873.873.873,0,0,0-.067.092,2.073,2.073,0,0,1-.324.331,2.533,2.533,0,0,0-.263-1.549v-.006Zm1.6.784h0c.129.043.178.251.171.435-.006.092-.024.184-.037.282a1.991,1.991,0,0,0-.037.508,2.086,2.086,0,0,0,.086.4,1.165,1.165,0,0,1,.073.41.421.421,0,0,1-.037.129,1.346,1.346,0,0,1-.233.282,1.266,1.266,0,0,0-.251.288,1.447,1.447,0,0,0-.153.912.98.98,0,0,1-.655,1.175,1.863,1.863,0,0,0-.661.539,2.592,2.592,0,0,0-.141.251c-.031.067-.061.122-.092.178a1.914,1.914,0,0,1-.52.5,8.723,8.723,0,0,1-1.849,1.163l-.031-.031a.527.527,0,0,0-.306-.1,2.814,2.814,0,0,0,.508-1.292c.012-.073.012-.147.024-.227a1.434,1.434,0,0,1,.165-.667,1.516,1.516,0,0,1,.331-.324,1.358,1.358,0,0,0,.49-.588,1.419,1.419,0,0,0,.043-.447,1.035,1.035,0,0,1,.018-.312,1.176,1.176,0,0,1,.453-.508c.086-.067.178-.141.263-.214a2.137,2.137,0,0,0,.624-1.322,2.3,2.3,0,0,0,1.016-.747c.012-.018.08-.1.092-.122.2-.263.441-.588.649-.52h.006Zm-5.51,6.336h0a2.458,2.458,0,0,0-.061-.306,1.6,1.6,0,0,1-.049-.631,1.774,1.774,0,0,1,.135-.349,1.461,1.461,0,0,0,.08-.171,4.247,4.247,0,0,0,.257-1.12,3.283,3.283,0,0,1,.343-1.237,3.575,3.575,0,0,1,.649-.722c.116-.1.227-.214.337-.324a4.175,4.175,0,0,0,.888-1.39,1.156,1.156,0,0,1,.465-.631c0,.006.006.012.006.018a4.87,4.87,0,0,1,.373,1.543,1.926,1.926,0,0,1-.539,1.457c-.073.067-.153.129-.239.2a1.439,1.439,0,0,0-.569.68,1.463,1.463,0,0,0-.037.422,1.173,1.173,0,0,1-.024.331,1.108,1.108,0,0,1-.373.429,1.807,1.807,0,0,0-.4.4,1.735,1.735,0,0,0-.22.82c-.006.073-.012.147-.024.214a2.44,2.44,0,0,1-.931,1.635c-.043.024-.086.055-.122.08s-.08.055-.116.08a2.363,2.363,0,0,1-.349.184,2.581,2.581,0,0,0,.514-1.6Zm-6.361,5.5h0a2.753,2.753,0,0,0,.049-.312,1.567,1.567,0,0,1,.165-.612,1.494,1.494,0,0,1,.245-.288c.043-.043.086-.092.129-.135a4.4,4.4,0,0,0,.612-.973,3.2,3.2,0,0,1,.729-1.053,3.446,3.446,0,0,1,.851-.465c.141-.061.282-.122.422-.2a4.24,4.24,0,0,0,1.3-1.022,1.121,1.121,0,0,1,.649-.441v.024a5.081,5.081,0,0,1-.159,1.573,1.934,1.934,0,0,1-.986,1.2c-.092.037-.19.067-.294.1a1.357,1.357,0,0,0-.759.453,1.332,1.332,0,0,0-.171.386.963.963,0,0,1-.129.3,1.059,1.059,0,0,1-.5.282,1.818,1.818,0,0,0-.514.251,1.662,1.662,0,0,0-.478.7c-.031.067-.061.135-.092.2a3.243,3.243,0,0,1-1.586,1.084,1.826,1.826,0,0,0,.514-1.065v.006Zm1.384.135h0a2.178,2.178,0,0,0,.1-.208,1.49,1.49,0,0,1,.373-.575,1.8,1.8,0,0,1,.422-.2,1.036,1.036,0,0,0,.839-.8.772.772,0,0,1,.71-.618,3.39,3.39,0,0,0,.318-.122,2.14,2.14,0,0,0,1.022-1.041,2.32,2.32,0,0,0,1.206-.367c.037-.024.08-.055.122-.08s.08-.055.122-.08h0l.012-.012c.245-.159.508-.306.655-.2.11.08.086.294.012.465-.024.055-.049.11-.08.165a.785.785,0,0,0-.067.122h0a1.776,1.776,0,0,0-.184.429,1.822,1.822,0,0,0-.049.4,1.068,1.068,0,0,1-.067.41s-.061.1-.073.11a1,1,0,0,1-.306.19,1.652,1.652,0,0,0-.337.184,1.418,1.418,0,0,0-.441.808,1.275,1.275,0,0,1-.294.612,1.39,1.39,0,0,1-.716.276,1.92,1.92,0,0,0-.8.288,1.583,1.583,0,0,0-.214.19,1.466,1.466,0,0,1-.147.135,2,2,0,0,1-.655.3,13.1,13.1,0,0,1-3.71.637v-.024c.453-.153,1.843-.68,2.216-1.414h.006Zm-14.693-3.5h0a8.821,8.821,0,0,1,1.506,1.151,4.428,4.428,0,0,1,1.292,3.165,7.051,7.051,0,0,1-1.463-1.892,3.733,3.733,0,0,0-1.378-1.586,6.246,6.246,0,0,0-1.322-.484v-.006a5.326,5.326,0,0,1-.41-1.261,3.85,3.85,0,0,1-.031-.563,7.388,7.388,0,0,0,1.8,1.469h0Zm-1.726.631h0a6.7,6.7,0,0,1,1.524.527,3.473,3.473,0,0,1,1.237,1.451,6.76,6.76,0,0,0,2.186,2.467,9.665,9.665,0,0,1-5.473-2.173,7.777,7.777,0,0,1-2.088-3.545l.275.22c.037.024.067.049.092.067a4.227,4.227,0,0,0,1.126.637,10.809,10.809,0,0,0,1.126.343h0Zm-4.322-7.836h0a3.807,3.807,0,0,1,.171-.539,7.353,7.353,0,0,0,1.175,2,9.067,9.067,0,0,1,1.016,1.6,3.942,3.942,0,0,1-.055,3.453c-.037-.251-.067-.5-.1-.765a6.2,6.2,0,0,0-1.182-3.52,6.042,6.042,0,0,0-1.071-.912h0a5.633,5.633,0,0,1,.049-1.329h0Zm-1.439.747h0a9.494,9.494,0,0,0,.943.71,7.045,7.045,0,0,1,1.249,1.022,5.9,5.9,0,0,1,1.1,3.324c.018.153.037.306.061.465a1.544,1.544,0,0,1-.343-.367.193.193,0,0,0-.233-.086.2.2,0,0,0-.122.214c.037.171.073.349.122.52a7.674,7.674,0,0,1-3.11-3.141,7.85,7.85,0,0,1-.729-4.047c.055.1.116.2.184.306a.9.9,0,0,1,.055.092,4.246,4.246,0,0,0,.833.992h0Zm-.557-8.032h0a4.189,4.189,0,0,1,.343-.447,7.5,7.5,0,0,0,.435,2.277,9.061,9.061,0,0,1,.422,1.849,3.932,3.932,0,0,1-1.157,3.19.013.013,0,0,0-.012-.012.344.344,0,0,1-.031-.049c.043-.227.1-.465.147-.692a6.051,6.051,0,0,0,.061-3.667,6.649,6.649,0,0,0-.7-1.218h0a5.33,5.33,0,0,1,.5-1.237h0Zm-.955,1.206h0a6.7,6.7,0,0,1,.833,1.384,5.742,5.742,0,0,1-.08,3.453c-.024.1-.043.208-.067.312a1.255,1.255,0,0,1-.147-.38.193.193,0,0,0-.38,0,6.768,6.768,0,0,0-.08.7,7.877,7.877,0,0,1-1.941-4.053,7.732,7.732,0,0,1,.569-3.832h.006v-.006l.092-.22a3.106,3.106,0,0,0,.073.343.491.491,0,0,0,.024.11,4.351,4.351,0,0,0,.453,1.212,9.782,9.782,0,0,0,.649.986h0Zm1.414-8.945h0a4.053,4.053,0,0,1,.465-.318,7.411,7.411,0,0,0-.3,2.3,9.179,9.179,0,0,1-.184,1.892,4.264,4.264,0,0,1-2.149,2.792.833.833,0,0,0-.025-.1.155.155,0,0,0-.012-.043c.122-.214.257-.435.392-.661a6.065,6.065,0,0,0,1.237-3.465,6.054,6.054,0,0,0-.288-1.377h0a5.1,5.1,0,0,1,.857-1.016h0Zm-.931,2.418h0a5.786,5.786,0,0,1-1.188,3.251c-.061.1-.116.2-.178.3a1.029,1.029,0,0,1,0-.275.19.19,0,0,0-.355-.122c-.092.165-.171.331-.251.5a8.32,8.32,0,0,1-.6-4.469,7.862,7.862,0,0,1,1.91-3.649c-.018.116-.031.233-.043.349-.006.043-.006.08-.012.11a4.178,4.178,0,0,0,.049,1.292,10.052,10.052,0,0,0,.306,1.139,6.864,6.864,0,0,1,.355,1.573h0Zm2.982-9.875h0a3.807,3.807,0,0,1,.514-.22,7.507,7.507,0,0,0-.759,2.192,8.953,8.953,0,0,1-.557,1.818,3.956,3.956,0,0,1-2.541,2.18v-.049c0-.012.006-.024.006-.043.153-.178.318-.355.478-.533a5.908,5.908,0,0,0,1.818-3.116,6.37,6.37,0,0,0,0-1.408v-.006a5.293,5.293,0,0,1,1.041-.82h0Zm4.022-5.822h0a3.261,3.261,0,0,1,.5-.012,7.122,7.122,0,0,0-1.414,1.635,8.629,8.629,0,0,1-1.133,1.39,3.736,3.736,0,0,1-2.92,1.01c.006-.024.018-.055.024-.086.006-.006.006-.018.012-.024.19-.092.38-.19.563-.276a5.464,5.464,0,0,0,2.675-2.057,5.886,5.886,0,0,0,.5-1.231,5.055,5.055,0,0,1,1.2-.349Zm-.4-2.2h0c-.024.031-.049.055-.067.08a3.831,3.831,0,0,0-.637,1.041,9.671,9.671,0,0,0-.355,1.053,6.484,6.484,0,0,1-.539,1.42,5.16,5.16,0,0,1-2.522,1.916c-.08.037-.159.073-.233.116a1.292,1.292,0,0,1,.159-.294.186.186,0,0,0,0-.245.19.19,0,0,0-.245-.043c-.178.11-.349.227-.52.349a7.4,7.4,0,0,1,1.782-3.765A7.413,7.413,0,0,1,142.5,20.48c-.067.073-.129.153-.2.227h0Zm-4.971,1.463h0c.184-.184.386-.349.588-.52a7.348,7.348,0,0,0,.612-.545,4.223,4.223,0,0,0,1.059-1.824.733.733,0,0,1,.067.1,2.69,2.69,0,0,1-.012,2.026,6.316,6.316,0,0,0-.778.661,7.952,7.952,0,0,0-1.941,4.341c-.092.073-.184.147-.269.227a4.609,4.609,0,0,1,.667-4.481h.006Zm.2,4.237h0c-.037.11-.073.22-.11.337a1,1,0,0,1-.037.1,4.374,4.374,0,0,0-.208,1.28c-.006.4.037.79.067,1.175a7.124,7.124,0,0,1,.037,1.61,5.535,5.535,0,0,1-1.726,2.926c-.043.043-.08.092-.122.135a1.03,1.03,0,0,1,.1-.294.188.188,0,0,0-.294-.227,7.442,7.442,0,0,0-.643.673,7.906,7.906,0,0,1,.343-4.524,7.917,7.917,0,0,1,2.6-3.19h0Zm-4.426,3.735h0c.1-.251.239-.5.367-.741a8.344,8.344,0,0,0,.386-.778,4.476,4.476,0,0,0,.318-2.228c.049.037.092.067.122.092a2.919,2.919,0,0,1,.8,2.014,7.2,7.2,0,0,0-.5.961,8.306,8.306,0,0,0-.3,5.014l-.2.275a4.546,4.546,0,0,1-.992-4.6h0ZM131.454,38.7h0c.055-.269.135-.539.214-.8s.165-.557.227-.839a4.518,4.518,0,0,0-.141-2.247c.055.024.1.043.141.061a2.876,2.876,0,0,1,1.182,1.812,7.363,7.363,0,0,0-.294,1.041,8.793,8.793,0,0,0,.753,4.99c-.049.122-.092.251-.141.386a4.737,4.737,0,0,1-1.941-4.4Zm.588,9.232h0A7.49,7.49,0,0,1,132,47.1a7.058,7.058,0,0,0-.055-.869,4.451,4.451,0,0,0-.839-2.088c.061.006.116.012.153.018a2.925,2.925,0,0,1,1.7,1.347A7.037,7.037,0,0,0,133,46.6a8.284,8.284,0,0,0,2.271,4.512v.337a4.742,4.742,0,0,1-3.233-3.514h0Zm3.569,8.436h0c-.122-.245-.227-.508-.324-.765s-.208-.539-.343-.8a4.6,4.6,0,0,0-1.488-1.69,1.019,1.019,0,0,1,.147-.037,2.9,2.9,0,0,1,2.051.7,7.311,7.311,0,0,0,.4,1,8.037,8.037,0,0,0,3.569,3.459,3.614,3.614,0,0,0,.129.361,4.553,4.553,0,0,1-4.151-2.241h0Zm6.226,6.857h0a7.646,7.646,0,0,1-.569-.606,8.26,8.26,0,0,0-.6-.631,4.511,4.511,0,0,0-1.984-1.065.93.93,0,0,1,.129-.086,2.924,2.924,0,0,1,2.167-.055,6.567,6.567,0,0,0,.729.8,10.318,10.318,0,0,0,6.226,2.314.735.735,0,0,0,.227.092,6.21,6.21,0,0,1,.82.233c-4.586.943-6.006.067-7.151-1v-.006Zm6.551,4.653h0a.028.028,0,0,1-.018.037c-1.1.8-3.343.533-4.126.4l.533-.6a.142.142,0,0,0,.037-.135.185.185,0,0,0-.086-.116l-.79-.38a5.188,5.188,0,0,0,2.89-.251,4.222,4.222,0,0,0,.667.557v.024h.037a4.108,4.108,0,0,0,.82.416.066.066,0,0,1,.037.037h0Zm-.251-.771h-.508a3.429,3.429,0,0,1-.637-.551c-.227-.257-.282-.453-.239-.539s.2-.135.539-.08a5.057,5.057,0,0,0,3.312-.331l.361.471a3.065,3.065,0,0,1-2.828,1.035h0Zm4.384-.98h0l-.38-.1-.38.1a.409.409,0,0,1-.422-.092l-.778-1.01c-.031-.037.006-.135.092-.251a1.1,1.1,0,0,1,.38-.324,2.138,2.138,0,0,1,.906-.288h.355a2.138,2.138,0,0,1,.955.282,1.161,1.161,0,0,1,.38.324c.08.116.116.214.086.251l-.778,1.01a.411.411,0,0,1-.416.092Zm-.239-2.277h-.288a1.741,1.741,0,0,0-.68.129c-.227-.294-.471-.575-.735-.863a2.878,2.878,0,0,1,3.128.006,9.469,9.469,0,0,0-.735.863,1.86,1.86,0,0,0-.68-.129h0Zm4.5,3.557h0a3.949,3.949,0,0,0,.667-.557,5.245,5.245,0,0,0,2.89.251l-.79.38a.164.164,0,0,0-.092.11.167.167,0,0,0,.037.141l.533.6c-.784.129-3.024.4-4.126-.4a.046.046,0,0,1-.018-.043c0-.012.006-.031.037-.043a3.944,3.944,0,0,0,.82-.41l.037-.024h0Zm.2-1.469h0c.331-.055.5.006.539.08s-.012.282-.239.545a4.063,4.063,0,0,1-.637.551h-.514a3.031,3.031,0,0,1-2.816-1.035l.361-.471a5.07,5.07,0,0,0,3.318.331h0Zm-3.043-1.249h0a.8.8,0,0,0-.061-.092,1.358,1.358,0,0,0-.49-.416c-.037-.024-.086-.043-.129-.067a12.983,12.983,0,0,1,2.094-2.088.161.161,0,1,0-.2-.251,14.668,14.668,0,0,0-1.237,1.108,3.156,3.156,0,0,0-3.563,0,13.669,13.669,0,0,0-1.237-1.108.161.161,0,1,0-.2.251,12.982,12.982,0,0,1,2.094,2.088c-.043.024-.092.043-.129.067a1.465,1.465,0,0,0-.484.416c-.024.037-.043.067-.061.092a4.173,4.173,0,0,0-2.1-1,.406.406,0,0,1-.318-.4v-1.4a.41.41,0,0,1,.41-.41h1.555a3.942,3.942,0,0,0,1.041-.116,4.382,4.382,0,0,0,.563-.159,1.849,1.849,0,0,1,.667-.129,1.734,1.734,0,0,1,.655.129,4.69,4.69,0,0,0,.563.159,3.943,3.943,0,0,0,1.041.116h1.555a.41.41,0,0,1,.41.41v1.4a.406.406,0,0,1-.324.4,4.173,4.173,0,0,0-2.1,1h0Zm11.044-4.469h0a3.118,3.118,0,0,0,.343.086,2.626,2.626,0,0,1,.392.1.245.245,0,0,1,.092.055c.025.037-.012.159-.116.245a1.436,1.436,0,0,1-.3.178,1.59,1.59,0,0,0-.178.086,1.736,1.736,0,0,0-.851,1.059,1.654,1.654,0,0,0-.049.251.872.872,0,0,1-.22.539.828.828,0,0,1-.416.147,9.921,9.921,0,0,1-1.127.135,1.137,1.137,0,0,0-.545.135,1.2,1.2,0,0,0-.275.282,1.17,1.17,0,0,1-.11.135,1.573,1.573,0,0,1-1.108.306,4.8,4.8,0,0,1-.986-.055c-.092-.018-.178-.043-.269-.067a2.932,2.932,0,0,0-.533-.1,2.041,2.041,0,0,0-1.09.208,1.176,1.176,0,0,1-.178.11,3.64,3.64,0,0,1-2.394.269A5.837,5.837,0,0,1,156.1,64a.736.736,0,0,0,.447-.3,3.511,3.511,0,0,0,.386.024,14.665,14.665,0,0,0,3.557-.667,2.239,2.239,0,0,0,.765-.361,1.076,1.076,0,0,0,.171-.159,1.387,1.387,0,0,1,.178-.159,1.543,1.543,0,0,1,.667-.227,1.63,1.63,0,0,0,.882-.361,1.6,1.6,0,0,0,.386-.765,1.173,1.173,0,0,1,.324-.637,1.755,1.755,0,0,1,.263-.147,1.174,1.174,0,0,0,.4-.251,1.084,1.084,0,0,0,.441.239h0Zm5.418-7.879h0c.116-.006.233-.018.349-.031a2.378,2.378,0,0,1,.4-.031.209.209,0,0,1,.1.018c.043.024.043.159-.025.269a1.481,1.481,0,0,1-.227.263l-.141.141a1.745,1.745,0,0,0-.453,1.286,1.653,1.653,0,0,0,.037.251.84.84,0,0,1-.031.582.924.924,0,0,1-.343.282,10.392,10.392,0,0,1-1.016.5,1.083,1.083,0,0,0-.471.306,1.349,1.349,0,0,0-.171.355c-.018.055-.037.11-.055.159a1.576,1.576,0,0,1-.943.655,4.836,4.836,0,0,1-.943.269c-.092.012-.184.018-.282.024a2.806,2.806,0,0,0-.533.08,2.565,2.565,0,0,0-.435.171.748.748,0,0,0-.012-.2A9.1,9.1,0,0,0,167.1,56.5a2.32,2.32,0,0,0,.606-.594,1.35,1.35,0,0,0,.11-.208,1.2,1.2,0,0,1,.673-.643,1.3,1.3,0,0,0,.826-1.488,1.177,1.177,0,0,1,.1-.71,1.345,1.345,0,0,1,.2-.227,1.281,1.281,0,0,0,.3-.373,1.229,1.229,0,0,0,.49.08h.006Zm1.12-8.5h0a1.144,1.144,0,0,1,.1-.288,1.246,1.246,0,0,0,.129-.465,1.222,1.222,0,0,0,.484-.116c.1-.049.208-.11.306-.165a2.511,2.511,0,0,1,.361-.184.261.261,0,0,1,.1-.024c.049.006.1.122.086.257a1.249,1.249,0,0,1-.1.337l-.073.184a1.744,1.744,0,0,0,.092,1.359l.129.22a.851.851,0,0,1,.2.545.906.906,0,0,1-.208.392,10.849,10.849,0,0,1-.741.851,1.1,1.1,0,0,0-.312.465,1.067,1.067,0,0,0-.012.392.819.819,0,0,1,.006.171,1.553,1.553,0,0,1-.612.973,5.208,5.208,0,0,1-.759.624,2.419,2.419,0,0,1-.251.135,2.806,2.806,0,0,0-.459.282,1.972,1.972,0,0,0-.178.159.55.55,0,0,0-.1-.159,10.54,10.54,0,0,0,1.133-1.684,2.245,2.245,0,0,0,.318-.784c.012-.08.018-.159.025-.233a1.431,1.431,0,0,1,.024-.239,1.524,1.524,0,0,1,.343-.618,1.3,1.3,0,0,0,.178-1.7,1.2,1.2,0,0,1-.19-.692V43.83Zm-.116-.771h0a.9.9,0,0,1-.1.349,2.085,2.085,0,0,0-.122.361,1.443,1.443,0,0,0,.214.894,1.337,1.337,0,0,1,.2.649,1.426,1.426,0,0,1-.343.686,1.9,1.9,0,0,0-.4.753,2.3,2.3,0,0,0-.031.288c-.006.067-.006.135-.018.2a1.912,1.912,0,0,1-.282.661,9.547,9.547,0,0,1-1.145,1.69.6.6,0,0,0-.416.11,3.248,3.248,0,0,0-.086-1.384c-.024-.067-.043-.147-.067-.214a1.431,1.431,0,0,1-.11-.68,1.483,1.483,0,0,1,.178-.429,1.041,1.041,0,0,0,.08-1.157,1,1,0,0,1-.1-.294,1.15,1.15,0,0,1,.214-.643,2.769,2.769,0,0,0,.153-.3,2.167,2.167,0,0,0,.055-1.463,2.23,2.23,0,0,0,.606-.973,1.224,1.224,0,0,0,.055-.214.114.114,0,0,1,.012-.043c.08-.318.178-.722.4-.747.135-.012.263.159.324.331.031.086.055.178.08.269a2.01,2.01,0,0,0,.165.478,2.165,2.165,0,0,0,.239.331.81.81,0,0,1,.251.484h0Zm1.408-5.039h0a1.022,1.022,0,0,0-.233.514,1.286,1.286,0,0,0,.043.386,1.713,1.713,0,0,1,.037.171,1.515,1.515,0,0,1-.453,1.053,4.963,4.963,0,0,1-.649.729c-.073.061-.147.116-.227.171a3.047,3.047,0,0,0-.355.288.9.9,0,0,0-.135-.239,13.661,13.661,0,0,0,.649-1.494,2.341,2.341,0,0,0,.2-.826c0-.08-.012-.159-.018-.233a1.077,1.077,0,0,1-.012-.239,1.632,1.632,0,0,1,.239-.667,1.609,1.609,0,0,0,.263-.918,1.629,1.629,0,0,0-.361-.778,1.193,1.193,0,0,1-.294-.655,1.073,1.073,0,0,1,.055-.294,1.314,1.314,0,0,0,.055-.471,1.111,1.111,0,0,0,.459-.2,3.292,3.292,0,0,0,.276-.214,2.238,2.238,0,0,1,.331-.239.234.234,0,0,1,.1-.037h0c.049,0,.122.11.122.245a1.4,1.4,0,0,1-.049.343c-.012.061-.031.129-.043.19a1.752,1.752,0,0,0,.306,1.329,2.541,2.541,0,0,0,.165.2.841.841,0,0,1,.282.508.866.866,0,0,1-.141.416,9.7,9.7,0,0,1-.6.961h-.006Z" transform="translate(-130.593 -10.646)" fill="#373435"/>
    <path id="Path_802" data-name="Path 802" d="M150.837,17.847c-4.885,3.1-8.277,9.875-8.277,17.718,0,10.763,6.392,19.518,14.246,19.518s14.246-8.755,14.246-19.518c0-7.843-3.4-14.62-8.277-17.718l4.341-5.234a.2.2,0,0,0-.018-.275,15.172,15.172,0,0,0-4.6-2.828,17.168,17.168,0,0,0-1.8-.6c-3.4-.931-3.679-2.939-3.686-3.018V5.878c0-.012-.006-.018-.006-.024s0-.012-.006-.012S157,5.829,157,5.823s-.006-.012-.012-.018a.013.013,0,0,0-.012-.012l-.018-.018-.012-.012a.046.046,0,0,0-.024-.012l-.006-.006a.191.191,0,0,0-.116-.024.173.173,0,0,0-.147.1v.006c-.006.012-.012.018-.012.031s0,.006-.006.006,0,.018-.006.024V5.9c-.012.086-.288,2.088-3.692,3.018a14.378,14.378,0,0,0-1.8.6,15.172,15.172,0,0,0-4.6,2.828.2.2,0,0,0-.018.275l4.341,5.234h.006Zm19.811,17.718h0c0,10.542-6.208,19.12-13.842,19.12s-13.842-8.577-13.842-19.12,6.208-19.113,13.842-19.113S170.649,25.028,170.649,35.565ZM151.266,9.876h0a15.147,15.147,0,0,1,1.757-.582c2.5-.686,3.435-1.947,3.784-2.718.343.771,1.28,2.026,3.784,2.718a15.421,15.421,0,0,1,6.092,3.208l-4.249,5.124v.006a10.775,10.775,0,0,0-11.253,0v-.006L146.931,12.5A14.967,14.967,0,0,1,151.266,9.876Z" transform="translate(-135.233 -5.717)" fill="#373435"/>
    <path id="Path_803" data-name="Path 803" d="M156.024,98.088a3.943,3.943,0,0,0,.82.41.058.058,0,0,1,.037.043.034.034,0,0,1-.012.037c-1.1.8-3.343.533-4.126.4l.533-.6a.149.149,0,0,0,.037-.141.152.152,0,0,0-.092-.11l-.79-.38a5.188,5.188,0,0,0,2.89-.251,4.221,4.221,0,0,0,.667.557l.037.024h0Z" transform="translate(-139.061 -41.309)" fill="#fff688"/>
    <path id="Path_804" data-name="Path 804" d="M158.4,96.986H157.9a3.093,3.093,0,0,1-.637-.557c-.233-.257-.288-.453-.239-.539s.2-.135.539-.08a5.016,5.016,0,0,0,3.312-.331l.361.471a3.064,3.064,0,0,1-2.828,1.035h0Z" transform="translate(-140.834 -40.526)" fill="#fff688"/>
    <path id="Path_805" data-name="Path 805" d="M172.843,98.067a3.947,3.947,0,0,0,.667-.557,5.245,5.245,0,0,0,2.89.251l-.79.38a.145.145,0,0,0-.086.11.149.149,0,0,0,.037.141l.533.6c-.784.129-3.024.4-4.126-.4-.006,0-.025-.012-.018-.043,0-.012.006-.031.037-.037a4.269,4.269,0,0,0,.82-.41l.037-.024h.006Z" transform="translate(-146.629 -41.313)" fill="#fff688"/>
    <path id="Path_806" data-name="Path 806" d="M171.423,95.811c.331-.055.5.006.539.08s-.012.282-.239.545a3.7,3.7,0,0,1-.637.551h-.514a3.044,3.044,0,0,1-2.822-1.035l.361-.471a5.049,5.049,0,0,0,3.312.331h0Z" transform="translate(-145.002 -40.526)" fill="#fff688"/>
    <path id="Path_807" data-name="Path 807" d="M164.96,91.677a.8.8,0,0,0-.061-.092,1.42,1.42,0,0,0-.49-.416c-.043-.024-.086-.043-.129-.067a12.984,12.984,0,0,1,2.094-2.088.163.163,0,0,0,.024-.227.156.156,0,0,0-.22-.024,13.8,13.8,0,0,0-1.237,1.114,2.383,2.383,0,0,0-1.788-.557,2.349,2.349,0,0,0-1.782.557,14.71,14.71,0,0,0-1.237-1.114.161.161,0,0,0-.2.251,12.981,12.981,0,0,1,2.094,2.088c-.043.024-.092.043-.129.067a1.465,1.465,0,0,0-.484.416c-.024.037-.043.061-.061.092a4.173,4.173,0,0,0-2.1-1,.411.411,0,0,1-.324-.4v-1.4a.41.41,0,0,1,.41-.41H160.9a3.942,3.942,0,0,0,1.041-.116,4.381,4.381,0,0,0,.563-.159,1.874,1.874,0,0,1,.667-.129,1.734,1.734,0,0,1,.655.129c.159.049.337.11.563.159a3.989,3.989,0,0,0,1.041.116h1.555a.41.41,0,0,1,.41.41v1.4a.406.406,0,0,1-.324.4,4.172,4.172,0,0,0-2.1,1h.006Z" transform="translate(-141.581 -37.647)" fill="#fff688"/>
    <path id="Path_808" data-name="Path 808" d="M192.867,30.633c.061-.092.116-.19.171-.288a2.527,2.527,0,0,1,.208-.331.261.261,0,0,1,.086-.08c.061-.031.165.037.214.129a.99.99,0,0,1,.08.288,1.709,1.709,0,0,0,.037.171,1.426,1.426,0,0,0,.784.943,1.37,1.37,0,0,0,.22.086c.19.067.373.135.441.275a.653.653,0,0,1,.024.38,8.4,8.4,0,0,1-.178,1.016.933.933,0,0,0-.018.52.944.944,0,0,0,.2.3.9.9,0,0,1,.08,1.126,4.108,4.108,0,0,1-.318.857c-.043.08-.092.153-.141.233a2.383,2.383,0,0,0-.239.447,2.062,2.062,0,0,0-.11.4.78.78,0,0,0-.165-.1,8.076,8.076,0,0,0,.1-1.935,1.913,1.913,0,0,0-.135-.747c-.031-.067-.073-.122-.1-.184s-.073-.116-.1-.178a1.367,1.367,0,0,1-.037-.618,1.3,1.3,0,0,0-.11-.857,1.407,1.407,0,0,0-.624-.478,1.017,1.017,0,0,1-.508-.386.8.8,0,0,1-.061-.251,1.243,1.243,0,0,0-.122-.4,1.512,1.512,0,0,0,.343-.343Z" transform="translate(-154.611 -15.106)" fill="#faa838"/>
    <path id="Path_809" data-name="Path 809" d="M185.264,19.685a3.2,3.2,0,0,0,.122-.306,1.888,1.888,0,0,1,.159-.355.223.223,0,0,1,.073-.092c.055-.037.171.012.227.092a.942.942,0,0,1,.122.275c.018.055.037.11.061.165a1.415,1.415,0,0,0,.918.814c.08.024.153.037.233.055a.754.754,0,0,1,.478.208.65.65,0,0,1,.08.373,9.654,9.654,0,0,1-.025,1.029,1.007,1.007,0,0,0,.055.514.932.932,0,0,0,.239.269c.037.037.08.067.11.1a1.246,1.246,0,0,1,.135,1,4,4,0,0,1-.184.894c-.031.086-.067.171-.1.251a2.458,2.458,0,0,0-.171.478,1.507,1.507,0,0,0-.037.282.625.625,0,0,0-.184-.018,8.056,8.056,0,0,0-.2-1.855,1.842,1.842,0,0,0-.245-.722,1.965,1.965,0,0,0-.135-.165,1.466,1.466,0,0,1-.129-.159,1.264,1.264,0,0,1-.122-.606,1.313,1.313,0,0,0-.239-.833,1.4,1.4,0,0,0-.692-.373.987.987,0,0,1-.557-.306,1.468,1.468,0,0,1-.1-.239,1.011,1.011,0,0,0-.184-.373,1.207,1.207,0,0,0,.282-.392l.006-.006Z" transform="translate(-151.679 -10.837)" fill="#faa838"/>
    <path id="Path_810" data-name="Path 810" d="M183.351,28.29a2.45,2.45,0,0,0-.294-.049,1.443,1.443,0,0,1-.563-.159,1.37,1.37,0,0,1-.239-.227c-.037-.043-.073-.08-.11-.122a3.679,3.679,0,0,0-.857-.588,2.533,2.533,0,0,1-.906-.692,2.584,2.584,0,0,1-.331-.784c-.037-.129-.08-.263-.129-.392a3.292,3.292,0,0,0-.808-1.224.825.825,0,0,1-.324-.594h.043a4.88,4.88,0,0,1,1.494.184,1.53,1.53,0,0,1,1,.918c.024.08.043.171.061.263a1.13,1.13,0,0,0,.343.722,1.316,1.316,0,0,0,.349.171.847.847,0,0,1,.269.129.8.8,0,0,1,.19.447,1.577,1.577,0,0,0,.171.484,1.468,1.468,0,0,0,.618.465c.055.031.116.055.171.092a2.285,2.285,0,0,1,1.194,1.133h0c.024.086.055.165.08.239a.654.654,0,0,0,.043.116.228.228,0,0,1,.012.055,4.573,4.573,0,0,0-1.494-.575V28.3Z" transform="translate(-149.283 -12.598)" fill="#faa838"/>
    <path id="Path_811" data-name="Path 811" d="M189.8,38.791a2.512,2.512,0,0,0-.282-.092,1.381,1.381,0,0,1-.533-.245,1.492,1.492,0,0,1-.2-.263c-.031-.043-.061-.092-.092-.135a3.964,3.964,0,0,0-.753-.716,2.646,2.646,0,0,1-.8-.814,2.885,2.885,0,0,1-.214-.82c-.018-.135-.037-.269-.067-.41a3.383,3.383,0,0,0-.612-1.329.867.867,0,0,1-.233-.637h.043a4.917,4.917,0,0,1,1.451.4,1.521,1.521,0,0,1,.851,1.053c.012.086.018.178.024.269a1.145,1.145,0,0,0,.233.765,1.09,1.09,0,0,0,.324.22.848.848,0,0,1,.245.159.782.782,0,0,1,.122.471,1.115,1.115,0,0,0,.643,1.059,1.517,1.517,0,0,1,.159.116,1.834,1.834,0,0,1,.753,1.426c-.006.043-.006.08-.012.116a.475.475,0,0,1-.012.1,2.28,2.28,0,0,0-1.035-.7h0Z" transform="translate(-152.082 -16.425)" fill="#faa838"/>
    <path id="Path_812" data-name="Path 812" d="M191.9,50.817c-.067-.08-.147-.159-.214-.233a1.5,1.5,0,0,1-.38-.508,1.626,1.626,0,0,1-.073-.367c-.006-.061-.018-.122-.024-.184a4.323,4.323,0,0,0-.373-1.09,2.443,2.443,0,0,1-.208-2.186c.037-.147.08-.3.11-.453a4.173,4.173,0,0,0,.012-1.653,1.143,1.143,0,0,1,.055-.784c.006.006.012.006.018.012a4.837,4.837,0,0,1,1.133,1.1,1.931,1.931,0,0,1,.324,1.518c-.024.1-.061.19-.1.294a1.4,1.4,0,0,0-.116.875,1.267,1.267,0,0,0,.2.373.941.941,0,0,1,.153.288,1.053,1.053,0,0,1-.086.563,1.9,1.9,0,0,0-.129.557,1.766,1.766,0,0,0,.251.814c.037.067.067.129.1.2a2.475,2.475,0,0,1,.288,1.671.457.457,0,0,1-.031.1l-.018.055h0a1.922,1.922,0,0,1-.392.667.021.021,0,0,0-.006-.012c-.024-.049-.043-.092-.067-.141a1.665,1.665,0,0,0-.422-1.475h.006Z" transform="translate(-153.808 -20.314)" fill="#faa838"/>
    <path id="Path_813" data-name="Path 813" d="M190.838,63.862c-.055-.092-.116-.178-.178-.263a1.12,1.12,0,0,1-.306-.931v-.184a4.307,4.307,0,0,0-.2-1.133,3.27,3.27,0,0,1-.171-1.267,3.465,3.465,0,0,1,.312-.918c.061-.141.129-.282.184-.429a4.107,4.107,0,0,0,.269-1.628,1.1,1.1,0,0,1,.184-.759c.006,0,.012.012.012.018a5.085,5.085,0,0,1,.949,1.267,1.917,1.917,0,0,1,.08,1.549c-.043.092-.092.178-.141.275a1.4,1.4,0,0,0-.257.845,1.366,1.366,0,0,0,.135.4.9.9,0,0,1,.1.312,1.079,1.079,0,0,1-.178.539,1.942,1.942,0,0,0-.214.533,1.683,1.683,0,0,0,.122.839c.025.067.043.141.067.2a2.7,2.7,0,0,1-.122,1.873.873.873,0,0,0-.067.092,2.072,2.072,0,0,1-.324.331,2.553,2.553,0,0,0-.263-1.555h0Z" transform="translate(-153.617 -25.352)" fill="#faa838"/>
    <path id="Path_814" data-name="Path 814" d="M184.682,75.891c-.012-.1-.037-.208-.055-.306a1.494,1.494,0,0,1-.049-.631,1.77,1.77,0,0,1,.135-.349c.024-.055.055-.116.08-.171a4.517,4.517,0,0,0,.263-1.12,3.283,3.283,0,0,1,.343-1.237,3.128,3.128,0,0,1,.649-.722c.116-.1.227-.208.337-.324a4.227,4.227,0,0,0,.894-1.39,1.156,1.156,0,0,1,.465-.631c.006.006.006.012.012.018a5.04,5.04,0,0,1,.373,1.543,1.917,1.917,0,0,1-.539,1.457c-.073.067-.153.129-.239.2a1.439,1.439,0,0,0-.569.68,1.463,1.463,0,0,0-.037.422,1.171,1.171,0,0,1-.024.331,1.108,1.108,0,0,1-.373.429,1.807,1.807,0,0,0-.4.4,1.735,1.735,0,0,0-.22.82c-.006.073-.012.147-.024.214a2.454,2.454,0,0,1-.931,1.641c-.043.024-.086.055-.122.08s-.08.055-.116.08a1.872,1.872,0,0,1-.349.178,2.62,2.62,0,0,0,.514-1.6V75.9Z" transform="translate(-151.373 -30.261)" fill="#faa838"/>
    <path id="Path_815" data-name="Path 815" d="M174.292,85.765a2.762,2.762,0,0,0,.049-.312,1.538,1.538,0,0,1,.165-.612,1.467,1.467,0,0,1,.245-.282c.043-.043.086-.092.129-.135a4.4,4.4,0,0,0,.612-.973,3.2,3.2,0,0,1,.729-1.053,3.675,3.675,0,0,1,.851-.471c.141-.061.282-.122.422-.19a4.314,4.314,0,0,0,1.3-1.016,1.121,1.121,0,0,1,.649-.441V80.3a4.9,4.9,0,0,1-.159,1.573,1.905,1.905,0,0,1-.986,1.194c-.092.043-.184.073-.288.11a1.392,1.392,0,0,0-.759.453,1.334,1.334,0,0,0-.171.386,1.031,1.031,0,0,1-.129.3,1.059,1.059,0,0,1-.5.282,1.818,1.818,0,0,0-.514.251,1.7,1.7,0,0,0-.478.7c-.031.067-.061.135-.092.2a3.289,3.289,0,0,1-1.586,1.09,1.827,1.827,0,0,0,.514-1.065H174.3Z" transform="translate(-147.344 -34.631)" fill="#faa838"/>
    <path id="Path_816" data-name="Path 816" d="M151.73,82.813a8.549,8.549,0,0,1,1.506,1.157,4.487,4.487,0,0,1,1.3,3.165,6.93,6.93,0,0,1-1.463-1.892,3.692,3.692,0,0,0-1.377-1.586,6.245,6.245,0,0,0-1.322-.484h0a5.327,5.327,0,0,1-.41-1.261,3.848,3.848,0,0,1-.031-.563,7.388,7.388,0,0,0,1.8,1.469h0Z" transform="translate(-138.091 -35.046)" fill="#faa838"/>
    <path id="Path_817" data-name="Path 817" d="M142.95,71.639a3.813,3.813,0,0,1,.171-.539,7.354,7.354,0,0,0,1.175,2,9.113,9.113,0,0,1,1.016,1.61,3.922,3.922,0,0,1-.055,3.453c-.037-.251-.067-.5-.1-.765a6.228,6.228,0,0,0-1.182-3.52,6.309,6.309,0,0,0-1.071-.912h0a5.323,5.323,0,0,1,.055-1.329h0Z" transform="translate(-135.36 -31.072)" fill="#faa838"/>
    <path id="Path_818" data-name="Path 818" d="M139.426,59.787a4.2,4.2,0,0,1,.343-.447,7.5,7.5,0,0,0,.435,2.277,9.027,9.027,0,0,1,.422,1.855,3.932,3.932,0,0,1-1.157,3.19c-.006-.006-.006-.012-.012-.012a.342.342,0,0,1-.031-.049c.043-.227.092-.459.147-.692a6.031,6.031,0,0,0,.061-3.661,6.649,6.649,0,0,0-.7-1.218v-.006a5.285,5.285,0,0,1,.5-1.231v-.006Z" transform="translate(-133.826 -26.511)" fill="#faa838"/>
    <path id="Path_819" data-name="Path 819" d="M139.1,47.238a3.577,3.577,0,0,1,.465-.318,7.256,7.256,0,0,0-.3,2.3,9.178,9.178,0,0,1-.184,1.892,4.241,4.241,0,0,1-2.143,2.792.838.838,0,0,0-.024-.1.387.387,0,0,1-.012-.043c.122-.214.251-.435.392-.661a6.065,6.065,0,0,0,1.237-3.465,6.483,6.483,0,0,0-.288-1.377h0a5.1,5.1,0,0,1,.857-1.016Z" transform="translate(-133.039 -21.695)" fill="#faa838"/>
    <path id="Path_820" data-name="Path 820" d="M141.723,35.12a3.806,3.806,0,0,1,.514-.22,7.508,7.508,0,0,0-.759,2.192,9.489,9.489,0,0,1-.557,1.818,3.973,3.973,0,0,1-2.541,2.179v-.043c0-.012.006-.024.006-.043.153-.184.318-.361.478-.533a5.948,5.948,0,0,0,1.818-3.116,6.015,6.015,0,0,0-.006-1.408h0a5.479,5.479,0,0,1,1.041-.82h0Z" transform="translate(-133.612 -17.034)" fill="#faa838"/>
    <path id="Path_821" data-name="Path 821" d="M147.271,25.74a3.239,3.239,0,0,1,.5-.012,7.3,7.3,0,0,0-1.42,1.635,8.631,8.631,0,0,1-1.133,1.39,3.736,3.736,0,0,1-2.92,1.01c.012-.024.018-.055.031-.086a.064.064,0,0,1,.012-.031c.184-.092.373-.184.563-.275a5.491,5.491,0,0,0,2.675-2.057,5.622,5.622,0,0,0,.49-1.224,5.055,5.055,0,0,1,1.2-.349Z" transform="translate(-135.133 -13.476)" fill="#faa838"/>
    <path id="Path_822" data-name="Path 822" d="M141.028,22.714a6.667,6.667,0,0,1,.588-.514c.2-.171.422-.349.612-.545a4.223,4.223,0,0,0,1.059-1.824.65.65,0,0,1,.061.1,2.692,2.692,0,0,1-.012,2.026,6.313,6.313,0,0,0-.778.661,8,8,0,0,0-1.941,4.341c-.092.073-.184.147-.269.227a4.624,4.624,0,0,1,.667-4.481h0Z" transform="translate(-134.265 -11.19)" fill="#faa838"/>
    <path id="Path_823" data-name="Path 823" d="M134.577,35.183a7.73,7.73,0,0,1,.373-.747,8.352,8.352,0,0,0,.386-.778,4.546,4.546,0,0,0,.318-2.228c.049.037.092.067.122.092a2.9,2.9,0,0,1,.8,2.014,7.152,7.152,0,0,0-.5.961,8.309,8.309,0,0,0-.3,5.014c-.067.092-.141.184-.2.275a4.559,4.559,0,0,1-.992-4.6h0Z" transform="translate(-132.038 -15.688)" fill="#faa838"/>
    <path id="Path_824" data-name="Path 824" d="M132.006,49.068c.055-.269.135-.539.214-.8s.171-.557.227-.839a4.448,4.448,0,0,0-.141-2.247,1.018,1.018,0,0,1,.141.067,2.914,2.914,0,0,1,1.188,1.812,6.815,6.815,0,0,0-.294,1.041,8.794,8.794,0,0,0,.753,4.99c-.049.129-.1.251-.141.38a4.724,4.724,0,0,1-1.941-4.4v-.006Z" transform="translate(-131.12 -21.02)" fill="#faa838"/>
    <path id="Path_825" data-name="Path 825" d="M132.407,64.214a7.48,7.48,0,0,1-.049-.826,8.456,8.456,0,0,0-.049-.869,4.515,4.515,0,0,0-.839-2.088l.153.018a2.949,2.949,0,0,1,1.7,1.347,6.311,6.311,0,0,0,.049,1.084,8.243,8.243,0,0,0,2.271,4.512v.337a4.731,4.731,0,0,1-3.233-3.514Z" transform="translate(-130.933 -26.934)" fill="#faa838"/>
    <path id="Path_826" data-name="Path 826" d="M137.465,78.291c-.122-.245-.227-.508-.324-.765s-.208-.539-.343-.8a4.549,4.549,0,0,0-1.488-1.69,1.021,1.021,0,0,1,.147-.037,2.927,2.927,0,0,1,2.051.7,7.352,7.352,0,0,0,3.973,4.463c.043.122.086.239.129.361a4.553,4.553,0,0,1-4.151-2.241h0Z" transform="translate(-132.422 -32.575)" fill="#faa838"/>
    <path id="Path_827" data-name="Path 827" d="M147.007,89.923c-.2-.19-.386-.4-.569-.606a8.233,8.233,0,0,0-.594-.637,4.573,4.573,0,0,0-1.984-1.065.929.929,0,0,1,.129-.086,2.919,2.919,0,0,1,2.167-.049,6.564,6.564,0,0,0,.729.8,10.318,10.318,0,0,0,6.226,2.314.734.734,0,0,0,.227.092,5.96,5.96,0,0,1,.82.233c-4.586.943-6.006.067-7.151-1Z" transform="translate(-135.737 -37.35)" fill="#faa838"/>
    <path id="Path_828" data-name="Path 828" d="M165.206,95.084l-.38-.1-.38.1a.411.411,0,0,1-.416-.092l-.778-1.01c-.031-.037.006-.135.092-.251a1.1,1.1,0,0,1,.38-.324,2.167,2.167,0,0,1,.912-.288h.355a2.065,2.065,0,0,1,.955.288,1.1,1.1,0,0,1,.38.324c.086.11.116.208.092.251l-.778,1.01a.411.411,0,0,1-.416.092h-.018Z" transform="translate(-143.254 -39.61)" fill="#fff688"/>
    <path id="Path_829" data-name="Path 829" d="M180.54,86.533a3.511,3.511,0,0,0,.343.086,2.441,2.441,0,0,1,.392.1.336.336,0,0,1,.092.049c.031.037-.012.165-.11.251a1.135,1.135,0,0,1-.306.171c-.055.031-.116.055-.178.086a1.752,1.752,0,0,0-.851,1.065,1.657,1.657,0,0,0-.049.251.888.888,0,0,1-.22.539.828.828,0,0,1-.416.147,9.984,9.984,0,0,1-1.12.135,1.121,1.121,0,0,0-.545.135,1.088,1.088,0,0,0-.276.282c-.037.049-.073.092-.11.135a1.566,1.566,0,0,1-1.1.306,4.71,4.71,0,0,1-.98-.055c-.092-.018-.184-.043-.275-.067a2.969,2.969,0,0,0-.526-.1,1.986,1.986,0,0,0-1.09.214,1.175,1.175,0,0,1-.178.11,3.64,3.64,0,0,1-2.394.269,6.218,6.218,0,0,1,1.035-.318.728.728,0,0,0,.447-.306,3.606,3.606,0,0,0,.386.025,14.682,14.682,0,0,0,3.557-.661,2.239,2.239,0,0,0,.765-.361c.061-.055.122-.11.171-.159a2.076,2.076,0,0,1,.178-.159,1.542,1.542,0,0,1,.667-.227,1.305,1.305,0,0,0,1.267-1.133,1.173,1.173,0,0,1,.324-.637,1.753,1.753,0,0,1,.263-.147,1.367,1.367,0,0,0,.4-.257,1.084,1.084,0,0,0,.441.239v.006Z" transform="translate(-146.122 -36.966)" fill="#faa838"/>
    <path id="Path_830" data-name="Path 830" d="M192.375,73.734a3.083,3.083,0,0,0,.349-.031,3.161,3.161,0,0,1,.41-.031.233.233,0,0,1,.1.024c.037.024.043.153-.024.269a1.128,1.128,0,0,1-.227.263,1.463,1.463,0,0,0-.135.141,1.74,1.74,0,0,0-.453,1.28c.006.086.018.171.031.251a.84.84,0,0,1-.031.582.911.911,0,0,1-.343.276,9.848,9.848,0,0,1-1.022.5,1.083,1.083,0,0,0-.471.306,1.152,1.152,0,0,0-.171.349c-.018.055-.037.116-.055.165a1.544,1.544,0,0,1-.943.649,4.549,4.549,0,0,1-.943.269c-.092.012-.184.018-.282.025a2.388,2.388,0,0,0-.533.08,2.566,2.566,0,0,0-.435.171.748.748,0,0,0-.012-.2,8.946,8.946,0,0,0,1.886-1.188,2.32,2.32,0,0,0,.606-.594,1.353,1.353,0,0,0,.11-.208,1.671,1.671,0,0,1,.116-.208,1.7,1.7,0,0,1,.557-.441,1.3,1.3,0,0,0,.826-1.488,1.177,1.177,0,0,1,.1-.71,1.347,1.347,0,0,1,.2-.227,1.28,1.28,0,0,0,.3-.373,1.241,1.241,0,0,0,.5.08V73.7Z" transform="translate(-152.54 -32.053)" fill="#faa838"/>
    <path id="Path_831" data-name="Path 831" d="M196.348,59.123a1.4,1.4,0,0,1,.1-.282,1.278,1.278,0,0,0,.129-.465,1.281,1.281,0,0,0,.49-.116c.1-.049.208-.11.306-.165a2.563,2.563,0,0,1,.361-.19.434.434,0,0,1,.1-.024c.043.006.1.129.086.263a1.211,1.211,0,0,1-.1.331c-.025.061-.049.122-.067.184a1.743,1.743,0,0,0,.086,1.359l.129.22a.627.627,0,0,1-.006.937c-.233.294-.478.582-.741.857a1.012,1.012,0,0,0-.312.465,1.223,1.223,0,0,0-.018.392c.006.061.012.116.012.171a1.553,1.553,0,0,1-.612.973,5.161,5.161,0,0,1-.759.618,2.423,2.423,0,0,1-.251.135,3.138,3.138,0,0,0-.465.282,1.977,1.977,0,0,0-.178.159.452.452,0,0,0-.1-.153,10.1,10.1,0,0,0,1.126-1.684,2.376,2.376,0,0,0,.324-.784,1.549,1.549,0,0,0,.018-.233,1.436,1.436,0,0,1,.024-.239,1.6,1.6,0,0,1,.343-.618,1.291,1.291,0,0,0,.178-1.69,1.147,1.147,0,0,1-.184-.692v-.006Z" transform="translate(-155.386 -25.945)" fill="#faa838"/>
    <path id="Path_832" data-name="Path 832" d="M198.361,47.778a1.089,1.089,0,0,0-.239.508,1.112,1.112,0,0,0,.049.386c.012.061.031.116.037.171a1.516,1.516,0,0,1-.453,1.053,4.716,4.716,0,0,1-.655.735,2.2,2.2,0,0,1-.227.171c-.116.092-.239.184-.349.288a.9.9,0,0,0-.135-.239,13.649,13.649,0,0,0,.649-1.494,2.339,2.339,0,0,0,.2-.82c0-.08-.012-.159-.018-.239a1.059,1.059,0,0,1-.012-.239,1.63,1.63,0,0,1,.239-.667,1.3,1.3,0,0,0-.1-1.7,1.174,1.174,0,0,1-.294-.655,1.337,1.337,0,0,1,.049-.294,1.3,1.3,0,0,0,.055-.465,1.24,1.24,0,0,0,.459-.2,2.367,2.367,0,0,0,.275-.214,1.956,1.956,0,0,1,.331-.239.234.234,0,0,1,.1-.037h0c.043,0,.122.11.122.239a1.362,1.362,0,0,1-.049.343c-.012.067-.031.129-.043.19a1.752,1.752,0,0,0,.306,1.329c.049.067.11.135.159.2a.852.852,0,0,1,.288.508.937.937,0,0,1-.141.416,9.706,9.706,0,0,1-.6.961h-.006Z" transform="translate(-156.108 -20.404)" fill="#faa838"/>
    <path id="Path_833" data-name="Path 833" d="M181.544,21.113a.7.7,0,0,1-.061-.116c-.171-.318-.294-.575-.159-.722.1-.11.312-.08.465-.012.073.037.147.08.227.122a1.406,1.406,0,0,0,.422.2,1.957,1.957,0,0,0,.38.055.7.7,0,0,1,.478.135.8.8,0,0,1,.135.282,1.417,1.417,0,0,0,.135.318,1.271,1.271,0,0,0,.729.435,1.129,1.129,0,0,1,.545.282,1.059,1.059,0,0,1,.159.643,1.545,1.545,0,0,0,.171.753,1.366,1.366,0,0,0,.159.2c.043.049.08.092.11.135a1.478,1.478,0,0,1,.2.6,7.555,7.555,0,0,1,.184,1.91h0a.612.612,0,0,0-.159.2,3.722,3.722,0,0,0-1.022-.759c-.061-.031-.122-.061-.19-.092a.815.815,0,0,1-.618-.735,1.065,1.065,0,0,0-.294-.612,1.116,1.116,0,0,0-.373-.184,1.116,1.116,0,0,1-.257-.116.873.873,0,0,1-.227-.533,2.281,2.281,0,0,0-.067-.294,1.748,1.748,0,0,0-.863-.973,1.878,1.878,0,0,0-.2-1.108h.006Z" transform="translate(-150.243 -11.334)" fill="#fff688"/>
    <path id="Path_834" data-name="Path 834" d="M189.048,31.443a.961.961,0,0,0-.043-.122c-.122-.343-.2-.612-.049-.741a.439.439,0,0,1,.465.055,2.194,2.194,0,0,1,.2.153,1.946,1.946,0,0,0,.386.263,2.034,2.034,0,0,0,.361.11.732.732,0,0,1,.453.208.692.692,0,0,1,.092.294,1.115,1.115,0,0,0,.092.331,1.227,1.227,0,0,0,.655.539,1.093,1.093,0,0,1,.5.355,1.063,1.063,0,0,1,.067.661,1.574,1.574,0,0,0,.055.771,1.152,1.152,0,0,0,.129.227,1.333,1.333,0,0,1,.086.153,1.479,1.479,0,0,1,.1.618,7.331,7.331,0,0,1-.1,1.892.046.046,0,0,0-.024.006.532.532,0,0,0-.331.263,2.2,2.2,0,0,0-.735-.961c-.055-.043-.11-.08-.171-.122a1.135,1.135,0,0,1-.429-.422,1.28,1.28,0,0,1-.073-.4,1.088,1.088,0,0,0-.2-.655,1.054,1.054,0,0,0-.343-.239,1,1,0,0,1-.239-.153.889.889,0,0,1-.147-.563c-.006-.1-.012-.2-.025-.306a1.757,1.757,0,0,0-.7-1.09,1.91,1.91,0,0,0-.031-1.126h0Z" transform="translate(-153.192 -15.34)" fill="#fff688"/>
    <path id="Path_835" data-name="Path 835" d="M194.114,42.919a1.186,1.186,0,0,1,.012-.147c.031-.331.061-.741.269-.8.135-.037.288.116.373.275.012.031.031.055.043.086a.408.408,0,0,0,.055.129c.006.012.012.031.018.043a1.972,1.972,0,0,0,.239.447,2.092,2.092,0,0,0,.282.288.827.827,0,0,1,.324.435.967.967,0,0,1-.049.361,1.189,1.189,0,0,0,.294,1.224,1.333,1.333,0,0,1,.3.612,1.368,1.368,0,0,1-.227.729,1.953,1.953,0,0,0-.275.808,2.133,2.133,0,0,0,.018.288c.006.067.012.135.012.2a2.014,2.014,0,0,1-.171.7,12.347,12.347,0,0,1-.594,1.4.56.56,0,0,0-.263-.049.567.567,0,0,0-.38.214,4.326,4.326,0,0,0-.318-.894c-.031-.067-.067-.135-.1-.2a1.358,1.358,0,0,1-.214-.649,1.438,1.438,0,0,1,.11-.453,1.366,1.366,0,0,0,.1-.753,1.217,1.217,0,0,0-.2-.4,1.008,1.008,0,0,1-.147-.276,1.168,1.168,0,0,1,.11-.667,2.862,2.862,0,0,0,.1-.324,2.173,2.173,0,0,0-.178-1.451,2.229,2.229,0,0,0,.459-1.175l-.006.006Z" transform="translate(-155.026 -19.776)" fill="#fff688"/>
    <path id="Path_836" data-name="Path 836" d="M191.035,69.9c.135.043.178.251.171.435-.006.092-.025.184-.037.282a1.75,1.75,0,0,0-.037.508,2.089,2.089,0,0,0,.086.4,1.164,1.164,0,0,1,.073.41.421.421,0,0,1-.037.129,1.209,1.209,0,0,1-.233.282,1.206,1.206,0,0,0-.4,1.194.98.98,0,0,1-.655,1.175,1.914,1.914,0,0,0-.661.533,1.781,1.781,0,0,0-.141.257c-.031.061-.061.122-.092.178a1.914,1.914,0,0,1-.52.5,8.485,8.485,0,0,1-1.849,1.163l-.031-.031a.509.509,0,0,0-.3-.1,2.814,2.814,0,0,0,.508-1.292c.012-.073.018-.147.024-.227a1.383,1.383,0,0,1,.171-.667,1.689,1.689,0,0,1,.331-.331,1.322,1.322,0,0,0,.484-.582,1.453,1.453,0,0,0,.043-.447,1.036,1.036,0,0,1,.018-.312,1.138,1.138,0,0,1,.453-.508c.086-.067.178-.141.263-.214a2.138,2.138,0,0,0,.624-1.329,2.3,2.3,0,0,0,1.016-.747c.012-.018.08-.1.092-.122.2-.263.447-.588.649-.52h0Z" transform="translate(-152.222 -30.604)" fill="#fff688"/>
    <path id="Path_837" data-name="Path 837" d="M175.466,86.714a2.171,2.171,0,0,0,.1-.208,1.371,1.371,0,0,1,.38-.569,1.423,1.423,0,0,1,.422-.2,1.3,1.3,0,0,0,.649-.392,1.181,1.181,0,0,0,.19-.41,1.234,1.234,0,0,1,.122-.288,1.171,1.171,0,0,1,.588-.331,3.328,3.328,0,0,0,.318-.116,2.166,2.166,0,0,0,1.022-1.041,2.272,2.272,0,0,0,1.206-.373c.037-.024.08-.055.122-.08s.08-.055.122-.08h0c0-.006.006-.006.012-.012.245-.159.508-.306.655-.2.11.08.086.294.018.465-.024.055-.049.11-.08.165a.788.788,0,0,0-.067.122h0a1.775,1.775,0,0,0-.184.429,1.815,1.815,0,0,0-.049.4,1.378,1.378,0,0,1-.067.416s-.061.1-.073.11a.965.965,0,0,1-.312.19,1.609,1.609,0,0,0-.331.184,1.418,1.418,0,0,0-.441.808,1.325,1.325,0,0,1-.294.618,1.39,1.39,0,0,1-.716.275,1.919,1.919,0,0,0-.8.288c-.08.061-.147.129-.214.19a1.467,1.467,0,0,1-.147.135,2,2,0,0,1-.655.3,12.817,12.817,0,0,1-3.71.637v-.024c.453-.153,1.843-.68,2.216-1.414l-.006.006Z" transform="translate(-147.134 -35.445)" fill="#fff688"/>
    <path id="Path_838" data-name="Path 838" d="M148.39,83.967a6.7,6.7,0,0,1,1.524.527,3.473,3.473,0,0,1,1.237,1.451,6.771,6.771,0,0,0,2.186,2.473,9.664,9.664,0,0,1-5.473-2.173A7.84,7.84,0,0,1,145.77,82.7l.275.22c.037.024.061.049.086.067a4.227,4.227,0,0,0,1.126.637,9.5,9.5,0,0,0,1.126.343h0Z" transform="translate(-136.478 -35.57)" fill="#fff688"/>
    <path id="Path_839" data-name="Path 839" d="M139.962,72.32a9.495,9.495,0,0,0,.943.71,6.788,6.788,0,0,1,1.249,1.022,5.933,5.933,0,0,1,1.1,3.324c.018.153.037.306.061.465a1.544,1.544,0,0,1-.343-.367.193.193,0,0,0-.233-.086.2.2,0,0,0-.122.214c.037.171.073.349.122.52a7.674,7.674,0,0,1-3.11-3.141,7.862,7.862,0,0,1-.729-4.053c.055.1.116.2.184.306a.9.9,0,0,1,.055.092,4.246,4.246,0,0,0,.833.992h0Z" transform="translate(-133.805 -31.006)" fill="#fff688"/>
    <path id="Path_840" data-name="Path 840" d="M136.974,60.367a6.826,6.826,0,0,1,.833,1.377,5.811,5.811,0,0,1-.08,3.459c-.024.1-.043.208-.067.312a1.146,1.146,0,0,1-.147-.38.185.185,0,0,0-.184-.159.191.191,0,0,0-.19.159,6.581,6.581,0,0,0-.08.7,7.873,7.873,0,0,1-1.941-4.059,7.732,7.732,0,0,1,.569-3.832l.006-.006V57.93l.092-.22c.018.116.043.227.067.343.012.043.018.08.025.11a4.423,4.423,0,0,0,.453,1.212,9.132,9.132,0,0,0,.649.986v.006Z" transform="translate(-132.329 -25.879)" fill="#fff688"/>
    <path id="Path_841" data-name="Path 841" d="M137.289,48.555a5.786,5.786,0,0,1-1.188,3.251c-.055.1-.116.2-.178.3a1.08,1.08,0,0,1,0-.282.191.191,0,0,0-.122-.214.182.182,0,0,0-.233.086c-.092.159-.171.331-.251.5a8.32,8.32,0,0,1-.6-4.469,7.862,7.862,0,0,1,1.91-3.649c-.018.116-.031.233-.043.349a.858.858,0,0,0-.012.11,4.176,4.176,0,0,0,.049,1.292,10.046,10.046,0,0,0,.306,1.139,6.863,6.863,0,0,1,.355,1.573h0Z" transform="translate(-132.154 -20.594)" fill="#fff688"/>
    <path id="Path_842" data-name="Path 842" d="M146.609,22.007c-.024.031-.049.055-.067.08a4.161,4.161,0,0,0-.637,1.041,9.671,9.671,0,0,0-.355,1.053,6.485,6.485,0,0,1-.539,1.42,5.172,5.172,0,0,1-2.516,1.916c-.08.037-.159.073-.239.116a1.588,1.588,0,0,1,.159-.294.186.186,0,0,0,0-.245.188.188,0,0,0-.245-.043c-.178.11-.349.227-.52.349a7.4,7.4,0,0,1,1.782-3.765A7.358,7.358,0,0,1,146.8,21.78c-.067.073-.129.147-.19.227Z" transform="translate(-134.88 -11.946)" fill="#fff688"/>
    <path id="Path_843" data-name="Path 843" d="M139.987,31.456l-.11.331a.661.661,0,0,1-.037.1,4.412,4.412,0,0,0-.214,1.28c-.006.4.037.8.067,1.175a7.119,7.119,0,0,1,.037,1.61A5.558,5.558,0,0,1,138,38.876c-.043.043-.08.092-.122.135a1.285,1.285,0,0,1,.092-.294.189.189,0,0,0-.049-.239.186.186,0,0,0-.245.012,7.438,7.438,0,0,0-.643.673,7.854,7.854,0,0,1,.343-4.524,7.917,7.917,0,0,1,2.6-3.19h0Z" transform="translate(-133.021 -15.696)" fill="#fff688"/>
    <path id="Path_844" data-name="Path 844" d="M195.594,57.461a.9.9,0,0,1-.1.349,1.793,1.793,0,0,0-.122.361,1.4,1.4,0,0,0,.22.894,1.359,1.359,0,0,1,.2.655,1.374,1.374,0,0,1-.343.686,1.981,1.981,0,0,0-.4.753,2.43,2.43,0,0,0-.031.288c-.006.067-.006.135-.018.2a2.094,2.094,0,0,1-.282.661A8.931,8.931,0,0,1,193.573,64a.607.607,0,0,0-.416.11,3.248,3.248,0,0,0-.086-1.384c-.024-.073-.043-.147-.067-.214a1.51,1.51,0,0,1-.11-.68,1.482,1.482,0,0,1,.178-.429,1.319,1.319,0,0,0,.214-.729,1.3,1.3,0,0,0-.135-.429,1,1,0,0,1-.1-.294,1.15,1.15,0,0,1,.214-.643,2.773,2.773,0,0,0,.153-.3,2.167,2.167,0,0,0,.055-1.463,2.267,2.267,0,0,0,.606-.973,1.229,1.229,0,0,0,.055-.214.113.113,0,0,1,.012-.043c.08-.324.177-.722.4-.747.135-.012.263.159.324.331.031.086.055.178.08.269a1.92,1.92,0,0,0,.165.478,2.164,2.164,0,0,0,.239.331.81.81,0,0,1,.251.484h-.006Z" transform="translate(-154.748 -25.049)" fill="#fff688"/>
  </g>
  <g id="Group_81" data-name="Group 81" transform="translate(4.317 59.744)">
    <path id="Path_845" data-name="Path 845" d="M65.2,34.578c-.086.059-.259.359-.439.218s-.1-.128-.183.01-.086.145-.186.207a.517.517,0,0,1-.311.079c-.128,0-.162-.014-.231-.162s-.276.111-.207.435.425.2.553.152.1-.121.287-.069a.8.8,0,0,0,.736-.39c.207-.3.066-.539-.021-.483h0Z" transform="translate(-45.696 -32.473)" fill="#ed3237" fill-rule="evenodd"/>
    <path id="Path_846" data-name="Path 846" d="M105.461,74.762a.639.639,0,0,0-.052-.888,1.34,1.34,0,0,0-.611-.5c-.224-.01-1.081,1.388-1.078,1.4.024.059.608.3.711.532.235.535.86-.311,1.029-.539Z" transform="translate(-71.941 -57.876)" fill="#ed3237" fill-rule="evenodd"/>
    <path id="Path_847" data-name="Path 847" d="M34.962,72.622c.069-.294-.259-.477-.414-.577s-.473-.452-.656-.2-.632.926-.784,1.219.242.3.449.473.183.162.242.276c.1.2.653-.428.736-.525a2.255,2.255,0,0,0,.428-.67Z" transform="translate(-25.693 -56.82)" fill="#ed3237" fill-rule="evenodd"/>
    <path id="Path_848" data-name="Path 848" d="M40.154,72.044c.076-.356-.414-.725-.656-.863s-.193-.128-.311,0-.294.414-.435.587a3.422,3.422,0,0,0-.39.608c-.131.249.066.214.38.459s.245.494.528.345a2.428,2.428,0,0,0,.888-1.14h0Z" transform="translate(-29.127 -56.378)" fill="#ed3237" fill-rule="evenodd"/>
    <path id="Path_849" data-name="Path 849" d="M19.81,54.817a6.791,6.791,0,0,0-.746,1.3c-.093.252.173.37.38.508s.214.138.287.242c.3.411.483.107.815-.4a1.517,1.517,0,0,0,.266-.615.734.734,0,0,0-.345-.68,1.974,1.974,0,0,0-.653-.356Z" transform="translate(-16.508 -45.729)" fill="#ed3237" fill-rule="evenodd"/>
    <path id="Path_850" data-name="Path 850" d="M107.187,47.274c.1-.494-.076-.311-.159-.093a4.009,4.009,0,0,0-.148.449,5.911,5.911,0,0,0-.321.874,24.023,24.023,0,0,0-.528,4.151c.052.794.432,1,.836.995s1-1.461,1-1.81.024-.559-.159-.128-.749.363-.932-.242a20.356,20.356,0,0,1,.414-4.2v0Z" transform="translate(-73.45 -40.586)" fill="#ed3237" fill-rule="evenodd"/>
    <path id="Path_851" data-name="Path 851" d="M11.7,56.044a1.887,1.887,0,0,0,1.046,1.772,2.6,2.6,0,0,0,1.855.114,4.614,4.614,0,0,0,2.158-1.62,6.506,6.506,0,0,0,.874-1.779,11.611,11.611,0,0,0,.463-2.072c.01-.211.024-.383.035-.577s.007-.38.024-.563.242-1.195.059-1.126a4.136,4.136,0,0,0-.711,1.6c-.035.345-.024.6-.035.953s.052.553.01,1a3.015,3.015,0,0,1-.76,1.516,3.842,3.842,0,0,1-2.255.991,3.121,3.121,0,0,1-.908-.059,1.567,1.567,0,0,1-1.219-.953,3.705,3.705,0,0,1,.173-1.861c.19-.421.259-.611.332-.784s.376-.753.242-.8-.787,1.392-.9,1.634a6.314,6.314,0,0,0-.483,2.621h0Z" transform="translate(-11.7 -42.701)" fill="#ed3237" fill-rule="evenodd"/>
    <path id="Path_852" data-name="Path 852" d="M36.061,54.725c-.155.079-.311.466-.5.608a9.563,9.563,0,0,0-.943.656c-.131.155-.131.186-.242.321a6.433,6.433,0,0,0-.294.656,2.56,2.56,0,0,1-1.233,1.247c-.09.052-1.04.556-1.071.6-.059.079-.173.332-.024.366a3.621,3.621,0,0,0,1.7-.5c.345-.252.611-1.178.8-1.447a1.484,1.484,0,0,1,.608-.528,1.822,1.822,0,0,0,.667-.473c.149-.19.311-.587.4-.725s.28-.863.128-.784h0Z" transform="translate(-24.779 -45.662)" fill="#ed3237" fill-rule="evenodd"/>
    <path id="Path_853" data-name="Path 853" d="M98.9,35.952a.639.639,0,0,0-.052-.888,1.328,1.328,0,0,0-.615-.5c-.225-.01-1.081,1.388-1.078,1.4.024.059.608.3.711.532.235.535.86-.311,1.029-.539h0Z" transform="translate(-67.646 -32.469)" fill="#ed3237" fill-rule="evenodd"/>
    <path id="Path_854" data-name="Path 854" d="M47.985,42.66a7.4,7.4,0,0,0-.563,1.254c-.052.186-.135.466-.186.725-.152.77-.145,1.63-.287,2.4-.069.373-.1.639-.128.784s-.207.815-.024.587a6.714,6.714,0,0,0,.874-2.739c.041-.356.093-.511.114-.794a9.416,9.416,0,0,1,.207-1.564c.035-.124.09-.743-.01-.653h0Z" transform="translate(-34.624 -37.768)" fill="#ed3237" fill-rule="evenodd"/>
    <path id="Path_855" data-name="Path 855" d="M35.374,44.566a6.131,6.131,0,0,0-.494,1.171,12.294,12.294,0,0,0-.3,1.4,14.967,14.967,0,0,0-.162,1.52,3.717,3.717,0,0,1-.114.722c-.028.138-.332.856-.01.563a8.381,8.381,0,0,0,.863-2.542c.093-.518.114-1.167.159-1.53s.076-.559.114-.736.066-.211.083-.332-.045-.294-.138-.242Z" transform="translate(-26.395 -39.011)" fill="#ed3237" fill-rule="evenodd"/>
    <path id="Path_856" data-name="Path 856" d="M87.07,28.576c-.7.47-1.157.818-1.944,1.261-1.067.6-2.148,1.209-3.246,1.751a10.486,10.486,0,0,0-2.528,1.7,5.641,5.641,0,0,0-.818,1.288,17.947,17.947,0,0,0-.794,2.379A2.422,2.422,0,0,1,76.406,38.8a11.883,11.883,0,0,1-3.139,1.022,23.727,23.727,0,0,1-4.3.207,2.387,2.387,0,0,1-1.516-.449c-.325-.269-.2-.725-.3-.715s-.18.694-.218.9a2.686,2.686,0,0,0-.069.932c.045.49.774.7,1.357.8a16.048,16.048,0,0,0,3.612-.069,9.315,9.315,0,0,0,4.659-1.806c.076-.076.988-1.188,1-1.171.038.045-.121.649-.138.884s-.038.5-.079.943a1.933,1.933,0,0,0,.4,1.623c.477.435.964-.107,1.16-.483a5.782,5.782,0,0,0,.459-1.174c.038-.176.01-.311-.055-.307-.111,0-.276.915-.981.242A1.449,1.449,0,0,1,78,39.3a15.9,15.9,0,0,1,.5-3.378c.1-.47.249-1.022.4-1.478.114-.356.211-.452.622-.746s2.093-1.247,2.7-1.6c1.5-.86,3.167-1.682,4.579-2.621a1.709,1.709,0,0,0,.446-.539c.114-.214.166-.591-.162-.37h0Z" transform="translate(-47.804 -28.505)" fill="#ed3237" fill-rule="evenodd"/>
    <path id="Path_857" data-name="Path 857" d="M50.334,44.607c-.035-.09-.114-.148-.207.024a16.775,16.775,0,0,0-1.288,2.759,5.748,5.748,0,0,0-.252,2.152,2.8,2.8,0,0,0,.518,1.333,2.181,2.181,0,0,0,2.162.435,3.8,3.8,0,0,0,2.283-2.017,6.98,6.98,0,0,0,.521-1.347c.131-.508.435-1.547-.09-1.986-.083-.069-.18-.145-.276-.211-.231-.159-.435-.311-.414-.539a2.139,2.139,0,0,1,.186-.459,3.843,3.843,0,0,1,.193-.414c.083-.155.059-.152.218-.062a.644.644,0,0,0,.66.076,1.443,1.443,0,0,0,.584-.653,2.309,2.309,0,0,0,.242-.8c.024-.242-.142-.736-.349-.7s-.218.515-.435.473-.311-.069-.414-.4a4.4,4.4,0,0,1,.035-1.506,1.751,1.751,0,0,0,.069-.37c.01-.128-.079-.338-.162-.173a8.383,8.383,0,0,0-.359,1.178c-.086.39-.135.9-.193,1.278-.069.446-.069.777-.128,1.209a5.157,5.157,0,0,1-.5,1.34,2.874,2.874,0,0,0-.387,1.247c.041.584.5.7.87.856s.615.345.1,1.074a3.277,3.277,0,0,1-2.638,1.3,1.529,1.529,0,0,1-1.685-1.147,2.737,2.737,0,0,1,.059-1.2,8.233,8.233,0,0,1,.549-1.537,5.936,5.936,0,0,0,.528-1.209h0Z" transform="translate(-35.833 -36.131)" fill="#ed3237" fill-rule="evenodd"/>
  </g>
</svg>
