<?xml version="1.0" encoding="UTF-8"?>
<!DOCTYPE svg PUBLIC "-//W3C//DTD SVG 1.0//EN" "http://www.w3.org/TR/2001/REC-SVG-20010904/DTD/svg10.dtd">
<!-- Creator: CorelDRAW 2020 (64-Bit) -->
<svg xmlns="http://www.w3.org/2000/svg" xml:space="preserve" width="150px" height="477px" version="1.0" style="shape-rendering:geometricPrecision; text-rendering:geometricPrecision; image-rendering:optimizeQuality; fill-rule:evenodd; clip-rule:evenodd"
viewBox="0 0 150 476.53"
 xmlns:xlink="http://www.w3.org/1999/xlink"
 xmlns:xodm="http://www.corel.com/coreldraw/odm/2003">
 <defs>
  <style type="text/css">
   <![CDATA[
    .fil0 {fill:#E7E7E8}
   ]]>
  </style>
 </defs>
 <g id="Layer_x0020_1">
  <metadata id="CorelCorpID_0Corel-Layer"/>
  <g id="_1945814196992">
   <path class="fil0" d="M0 477.27l8.29 0c0,-15.64 -0.5,-32.1 0.01,-47.63 0.39,-11.91 4.78,-28.16 9.6,-38.1 6.2,-12.76 10.47,-18.39 20,-27.6l18.14 -17.57c2.03,-2.02 3.78,-3.69 5.82,-5.69 2.06,-2.02 3.91,-4.02 6.11,-5.8 4.19,-3.41 12.7,-13.05 18.14,-17.57 4.78,-3.97 16.33,-16.14 18.19,-17.5l12.14 -11.68c9.63,-9.5 22.37,-19.64 28.25,-31.29 10.07,-19.96 5.15,-42.84 -9.09,-57.16 -0.68,-0.68 -0.83,-1.01 -1.49,-1.71 -0.61,-0.65 -0.7,-0.57 -1.51,-1.24 -2.2,-1.83 -3.76,-3.9 -5.91,-6 -7.83,-7.59 -16.99,-15.57 -24.31,-23.3l-18.14 -17.57c-2.23,-2.12 -3.54,-3.6 -6.18,-5.71 -1.73,-1.38 -4.28,-4.31 -5.98,-5.93l-36.21 -34.82c-2.19,-2.09 -3.78,-3.75 -5.77,-6.15 -3.24,-3.92 -6.79,-9.17 -9.38,-14.02 -15.34,-28.74 -12.43,-50.25 -12.43,-82.49l-8.29 0 0 476.53z"/>
  </g>
 </g>
</svg>
