<svg width="0" height="0" class="hidden">
  <symbol xmlns="http://www.w3.org/2000/svg" viewBox="0 0 20 20" id="aparat">
    <g id="aparat" transform="translate(-124.543 -0.003)">
      <g id="brand" transform="translate(124.543 0.003)">
        <g id="logo--black--without_text" transform="translate(0 0)">
          <path id="Path_870" d="M139.511.608l-1.9-.5A3.2,3.2,0,0,0,133.7,2.385l-.478,1.8A9.809,9.809,0,0,1,139.511.608Z" transform="translate(-130.593 -0.003)" fill="#646466"></path>
          <path id="Path_871" d="M125.117,39.33l-.466,1.756A3.2,3.2,0,0,0,126.925,45l1.816.484A9.812,9.812,0,0,1,125.117,39.33Z" transform="translate(-124.543 -28.118)" fill="#646466"></path>
          <path id="Path_872" d="M180.3,9l-2.04-.542a9.809,9.809,0,0,1,3.754,6.569l.56-2.119A3.2,3.2,0,0,0,180.3,9Z" transform="translate(-162.68 -5.9)" fill="#646466"></path>
          <path id="Path_873" d="M163.23,57.468l1.953.527a3.2,3.2,0,0,0,3.917-2.274l.551-2.071A9.815,9.815,0,0,1,163.23,57.468Z" transform="translate(-152.2 -38.102)" fill="#646466"></path>
          <path id="Path_874" d="M137.709,4.54a8.624,8.624,0,1,0,8.629,8.624A8.626,8.626,0,0,0,137.709,4.54Zm-4.887,4.3a2.464,2.464,0,1,1,1.954,2.884,2.464,2.464,0,0,1-1.954-2.884Zm3.585,7.451a2.462,2.462,0,1,1-.378-1.849A2.464,2.464,0,0,1,136.407,16.292Zm1.046-1.994a1.095,1.095,0,1,1,.824-.17,1.094,1.094,0,0,1-.824.17Zm5.14,3.181a2.464,2.464,0,1,1-1.954-2.884A2.464,2.464,0,0,1,142.593,17.48Zm-1.631-4.564a2.459,2.459,0,1,1,1.849-.377,2.462,2.462,0,0,1-1.849.377Z" transform="translate(-127.707 -3.167)" fill="#646466"></path>
        </g>
      </g>
    </g>
  </symbol>
  <symbol xmlns="http://www.w3.org/2000/svg" viewBox="0 0 20 20" id="bale">
    <g id="bale" transform="translate(1706.79 33.333)">
      <path id="Path_876" d="M17.86,13.058,21.711,9.2a6.16,6.16,0,0,1,.8-.753,1.968,1.968,0,0,1,3,2.276,2.158,2.158,0,0,1-.659.892c-.278.269-.51.5-.78.771L19.4,17.035a1.949,1.949,0,0,1-2.19.613,5.716,5.716,0,0,1-1.671-1.412l-1.55-1.552a2.815,2.815,0,0,1-1.151-1.942,1.951,1.951,0,0,1,3.053-1.635c.176.121.993.966,1.188,1.152a6.313,6.313,0,0,0,.807.771h0l-.019.019ZM9.21,3.943v8.6a10.556,10.556,0,0,0,.854,4.181,10.012,10.012,0,0,0,2.682,3.577,8.635,8.635,0,0,0,2.32,1.468,9.918,9.918,0,0,0,6.329.66,11.151,11.151,0,0,0,1.856-.613c.306-.139.548-.26.826-.418s.5-.279.77-.465a13.213,13.213,0,0,0,1.364-1.115,10.047,10.047,0,0,0,3-6.894,9.9,9.9,0,0,0-.928-4.469,9.8,9.8,0,0,0-4.91-4.887,9.945,9.945,0,0,0-9.364.585c-.752.446-.418.558-1.309-.1-.585-.437-1.689-1.375-2.4-1.375A1.165,1.165,0,0,0,9.229,3.924h0l-.019.009Z" transform="translate(-1716 -36)" fill="#646466" fill-rule="evenodd"></path>
      <path id="Path_877" d="M18.037,13.645a5.713,5.713,0,0,1-.791-.788c-.191-.2-.982-1.067-1.164-1.2a1.911,1.911,0,0,0-2.992,1.692,2.976,2.976,0,0,0,1.128,2.019c.518.538,1,1.058,1.519,1.606a5.815,5.815,0,0,0,1.637,1.461,1.828,1.828,0,0,0,2.146-.635l4.574-4.807c.264-.288.482-.519.764-.8a2.292,2.292,0,0,0,.646-.923,2.063,2.063,0,0,0-.646-2.327,1.867,1.867,0,0,0-2.292-.029,7.682,7.682,0,0,0-.782.779l-3.774,3.99h0l.018-.019Z" transform="translate(-1716.15 -36.594)" fill="#fefefe" fill-rule="evenodd"></path>
    </g>
  </symbol>
  <symbol id="ForeignCompany" xmlns="http://www.w3.org/2000/svg" viewBox="0 0 32.355 20.295">
    <path id="users-alt-3" d="M13.853,214.247c-2.765,0-5.531-.006-8.3.008-.294,0-.324-.1-.344-.357-.133-1.74.906-2.7,2.272-3.436.876-.474,1.837-.748,2.752-1.136a4.679,4.679,0,0,0,1.031-.554.76.76,0,0,0,.224-1.111c-.2-.335-.454-.64-.671-.964a6.8,6.8,0,0,1-1.061-5.542A4.163,4.163,0,0,1,14,197.87a3.917,3.917,0,0,1,3.7,2.5,6.432,6.432,0,0,1-.687,6.2c-.2.324-.449.618-.662.934a.853.853,0,0,0,.3,1.391,11.054,11.054,0,0,0,2.209.953,7.4,7.4,0,0,1,2.879,1.693,3.091,3.091,0,0,1,.79,2.563c-.014.205-.163.139-.266.139-.986.006-1.97.006-2.957.006q-2.731,0-5.459,0v0Zm11.672-2.433h-1.9c-.111,0-.213,0-.28-.125a6.491,6.491,0,0,0-3.566-2.81c-.643-.255-1.291-.5-1.94-.743-.238-.089-.319-.166-.127-.424a8.252,8.252,0,0,0,1.693-5.528,6.182,6.182,0,0,0-1.419-3.674c-.163-.194-.114-.26.061-.38a3.654,3.654,0,0,1,5.5,1.7,5.691,5.691,0,0,1-.829,5.512c-.155.222-.33.432-.474.662a.7.7,0,0,0,.2,1.05,6.213,6.213,0,0,0,1.629.765,8.414,8.414,0,0,1,2.594,1.311,2.727,2.727,0,0,1,1.047,2.5c-.017.205-.133.188-.263.188Zm-15.31-3.841a9.054,9.054,0,0,1-1.477.607,21.973,21.973,0,0,0-2.092.923,5.389,5.389,0,0,0-2.2,2.125.31.31,0,0,1-.3.188c-1.3,0-2.594-.005-3.891,0-.191,0-.2-.083-.211-.233a2.873,2.873,0,0,1,1.541-2.821,8.824,8.824,0,0,1,1.94-.887,8.056,8.056,0,0,0,1.621-.715c.579-.366.671-.709.283-1.275a9.1,9.1,0,0,1-1.081-1.768A5.422,5.422,0,0,1,4.4,199.4a3.663,3.663,0,0,1,5.323-1.264c.158.111.224.172.067.357a6.5,6.5,0,0,0-1.41,5.049,8.044,8.044,0,0,0,1.74,4.3,1.425,1.425,0,0,1,.091.136Z" transform="translate(-0.023 -193.961)" fill="#ee1c25"></path>
    <path id="question" d="M248.061,65.951a4.6,4.6,0,0,0,.531-.126,2.093,2.093,0,0,0,.509-.227,1.257,1.257,0,0,0,.381-.36.917.917,0,0,0,.149-.536.838.838,0,0,0-.344-.724,1.511,1.511,0,0,0-.907-.249c-.155,0-.292.006-.414.016a2.235,2.235,0,0,0-.337.055c-.1.026-.209.055-.315.088s-.22.072-.337.116a3.461,3.461,0,0,1-.254-.6,2.681,2.681,0,0,1-.122-.641c.191-.067.369-.124.531-.171s.321-.087.476-.116a4.557,4.557,0,0,1,.465-.06c.155-.01.321-.016.5-.016a2.922,2.922,0,0,1,2,.6,2.1,2.1,0,0,1,.674,1.653,1.9,1.9,0,0,1-.2.9,2.326,2.326,0,0,1-.481.636,2.866,2.866,0,0,1-.58.421c-.2.106-.362.186-.487.238v1.005a4.417,4.417,0,0,1-.74.067,3.563,3.563,0,0,1-.7-.067Zm-.11,4.4a5.077,5.077,0,0,1-.067-.807,5.175,5.175,0,0,1,.067-.818,5.076,5.076,0,0,1,.807-.067,5.275,5.275,0,0,1,.818.067,5.211,5.211,0,0,1,.067.807,5.134,5.134,0,0,1-.067.818,5.21,5.21,0,0,1-.807.067A5.021,5.021,0,0,1,247.951,70.352Z" transform="translate(-218.891 -62.4)" fill="#ee1c25"></path>
  </symbol>
  <symbol xmlns="http://www.w3.org/2000/svg" viewBox="0 0 19.975 19.295" id="ForeignUser">
    <g id="icon" transform="translate(0 -1)">
      <path id="user-alt-3" d="M8.887,44.24c-2.829,0-5.66,0-8.491.009-.3,0-.332-.1-.352-.366-.137-1.781.927-2.76,2.325-3.516.9-.487,1.883-.765,2.817-1.163a4.735,4.735,0,0,0,1.057-.568A.779.779,0,0,0,6.472,37.5c-.208-.343-.464-.654-.686-.987A6.953,6.953,0,0,1,4.7,30.839,4.268,4.268,0,0,1,9.04,27.475a4.017,4.017,0,0,1,3.792,2.559,6.593,6.593,0,0,1-.7,6.349c-.206.332-.46.632-.678.955a.876.876,0,0,0,.311,1.426,11.413,11.413,0,0,0,2.259.973,7.548,7.548,0,0,1,2.948,1.735,3.157,3.157,0,0,1,.808,2.621c-.014.211-.167.144-.274.144-1.009.005-2.018.005-3.026.005q-2.795,0-5.589,0V44.24Z" transform="translate(-0.033 -23.954)" fill="#ee1c25"></path>
      <path id="question" d="M248.061,65.951a4.6,4.6,0,0,0,.531-.126,2.093,2.093,0,0,0,.509-.227,1.257,1.257,0,0,0,.381-.36.917.917,0,0,0,.149-.536.838.838,0,0,0-.344-.724,1.511,1.511,0,0,0-.907-.249c-.155,0-.292.006-.414.016a2.235,2.235,0,0,0-.337.055c-.1.026-.209.055-.315.088s-.22.072-.337.116a3.461,3.461,0,0,1-.254-.6,2.681,2.681,0,0,1-.122-.641c.191-.067.369-.124.531-.171s.321-.087.476-.116a4.557,4.557,0,0,1,.465-.06c.155-.01.321-.016.5-.016a2.922,2.922,0,0,1,2,.6,2.1,2.1,0,0,1,.674,1.653,1.9,1.9,0,0,1-.2.9,2.326,2.326,0,0,1-.481.636,2.866,2.866,0,0,1-.58.421c-.2.106-.362.186-.487.238v1.005a4.417,4.417,0,0,1-.74.067,3.563,3.563,0,0,1-.7-.067Zm-.11,4.4a5.077,5.077,0,0,1-.067-.807,5.175,5.175,0,0,1,.067-.818,5.076,5.076,0,0,1,.807-.067,5.275,5.275,0,0,1,.818.067,5.211,5.211,0,0,1,.067.807,5.134,5.134,0,0,1-.067.818,5.21,5.21,0,0,1-.807.067A5.021,5.021,0,0,1,247.951,70.352Z" transform="translate(-231.271 -61.4)" fill="#ee1c25"></path>
    </g>
  </symbol>
  <symbol xmlns="http://www.w3.org/2000/svg" viewBox="0 0 20 20" id="instagram">
    <path id="instagram" d="M17.556,0A2.445,2.445,0,0,1,20,2.444V17.556A2.445,2.445,0,0,1,17.556,20H2.444A2.445,2.445,0,0,1,0,17.556V2.444A2.445,2.445,0,0,1,2.444,0H17.556ZM10,3.164c-1.857,0-2.089.008-2.818.041a5.017,5.017,0,0,0-1.659.318,3.5,3.5,0,0,0-2,2,5.019,5.019,0,0,0-.318,1.659c-.033.729-.041.962-.041,2.818s.008,2.089.041,2.818a5.019,5.019,0,0,0,.318,1.659,3.5,3.5,0,0,0,2,2,5.018,5.018,0,0,0,1.659.318c.729.033.962.041,2.818.041s2.089-.008,2.818-.041a5.018,5.018,0,0,0,1.659-.318,3.5,3.5,0,0,0,2-2,5.018,5.018,0,0,0,.318-1.659c.033-.729.041-.962.041-2.818s-.008-2.089-.041-2.818a5.018,5.018,0,0,0-.318-1.659,3.5,3.5,0,0,0-2-2,5.017,5.017,0,0,0-1.659-.318c-.729-.033-.962-.041-2.818-.041ZM10,4.4c1.825,0,2.041.007,2.762.04a3.785,3.785,0,0,1,1.269.235,2.264,2.264,0,0,1,1.3,1.3,3.783,3.783,0,0,1,.235,1.269c.033.721.04.937.04,2.762s-.007,2.041-.04,2.762a3.783,3.783,0,0,1-.235,1.269,2.264,2.264,0,0,1-1.3,1.3,3.783,3.783,0,0,1-1.269.235c-.721.033-.937.04-2.762.04s-2.042-.007-2.762-.04a3.783,3.783,0,0,1-1.269-.235,2.264,2.264,0,0,1-1.3-1.3,3.784,3.784,0,0,1-.235-1.269C4.4,12.041,4.4,11.825,4.4,10s.007-2.041.04-2.762a3.784,3.784,0,0,1,.235-1.269,2.264,2.264,0,0,1,1.3-1.3,3.785,3.785,0,0,1,1.269-.235C7.959,4.4,8.175,4.4,10,4.4ZM10,6.49A3.51,3.51,0,1,0,13.51,10,3.51,3.51,0,0,0,10,6.49Zm0,5.789A2.279,2.279,0,1,1,12.279,10,2.279,2.279,0,0,1,10,12.279Zm4.469-5.928a.82.82,0,1,1-.82-.82.82.82,0,0,1,.82.82Z" fill="#646466" fill-rule="evenodd"></path>
  </symbol>
  <symbol id="IranCompany" xmlns="http://www.w3.org/2000/svg" viewBox="0 0 34.934 19.131">
    <path id="users-alt-3" d="M13.853,214.247c-2.765,0-5.531-.006-8.3.008-.294,0-.324-.1-.344-.357-.133-1.74.906-2.7,2.272-3.436.876-.474,1.837-.748,2.752-1.136a4.679,4.679,0,0,0,1.031-.554.76.76,0,0,0,.224-1.111c-.2-.335-.454-.64-.671-.964a6.8,6.8,0,0,1-1.061-5.542A4.163,4.163,0,0,1,14,197.87a3.917,3.917,0,0,1,3.7,2.5,6.432,6.432,0,0,1-.687,6.2c-.2.324-.449.618-.662.934a.853.853,0,0,0,.3,1.391,11.054,11.054,0,0,0,2.209.953,7.4,7.4,0,0,1,2.879,1.693,3.091,3.091,0,0,1,.79,2.563c-.014.205-.163.139-.266.139-.986.006-1.97.006-2.957.006q-2.731,0-5.459,0v0Zm11.672-2.433h-1.9c-.111,0-.213,0-.28-.125a6.491,6.491,0,0,0-3.566-2.81c-.643-.255-1.291-.5-1.94-.743-.238-.089-.319-.166-.127-.424a8.252,8.252,0,0,0,1.693-5.528,6.182,6.182,0,0,0-1.419-3.674c-.163-.194-.114-.26.061-.38a3.654,3.654,0,0,1,5.5,1.7,5.691,5.691,0,0,1-.829,5.512c-.155.222-.33.432-.474.662a.7.7,0,0,0,.2,1.05,6.213,6.213,0,0,0,1.629.765,8.414,8.414,0,0,1,2.594,1.311,2.727,2.727,0,0,1,1.047,2.5c-.017.205-.133.188-.263.188Zm-15.31-3.841a9.054,9.054,0,0,1-1.477.607,21.973,21.973,0,0,0-2.092.923,5.389,5.389,0,0,0-2.2,2.125.31.31,0,0,1-.3.188c-1.3,0-2.594-.005-3.891,0-.191,0-.2-.083-.211-.233a2.873,2.873,0,0,1,1.541-2.821,8.824,8.824,0,0,1,1.94-.887,8.056,8.056,0,0,0,1.621-.715c.579-.366.671-.709.283-1.275a9.1,9.1,0,0,1-1.081-1.768A5.422,5.422,0,0,1,4.4,199.4a3.663,3.663,0,0,1,5.323-1.264c.158.111.224.172.067.357a6.5,6.5,0,0,0-1.41,5.049,8.044,8.044,0,0,0,1.74,4.3,1.425,1.425,0,0,1,.091.136Z" transform="translate(-0.023 -195.125)" fill="#ee1c25"></path>
    <path id="tick-mark_1_" d="M71.459,120.454a22.462,22.462,0,0,0-5.061,7,.14.14,0,0,1-.113.09.029.029,0,0,1-.023.007.127.127,0,0,1-.105-.045l-3.69-3.75a7.52,7.52,0,0,1,1.137-.979l2.026,1.589a23.674,23.674,0,0,1,5.421-4.668,4.308,4.308,0,0,1,.444.588A.15.15,0,0,1,71.459,120.454Z" transform="translate(-36.573 -119.7)" fill="#ee1c25"></path>
  </symbol>
  <symbol xmlns="http://www.w3.org/2000/svg" viewBox="0 0 25.03 19.449" id="IranUser">
    <g id="icon" transform="translate(0 0.554)">
      <path id="user-alt-3" d="M8.779,44.034c-2.794,0-5.59,0-8.387.009-.3,0-.328-.1-.347-.361-.135-1.759.916-2.726,2.3-3.473.886-.481,1.859-.756,2.782-1.149A4.677,4.677,0,0,0,6.167,38.5a.77.77,0,0,0,.226-1.123c-.205-.339-.458-.646-.677-.975A6.868,6.868,0,0,1,4.64,30.8a4.215,4.215,0,0,1,4.289-3.322A3.967,3.967,0,0,1,12.674,30a6.512,6.512,0,0,1-.695,6.271c-.2.328-.454.624-.67.944a.865.865,0,0,0,.307,1.409,11.272,11.272,0,0,0,2.231.961A7.455,7.455,0,0,1,16.76,41.3a3.118,3.118,0,0,1,.8,2.589c-.014.209-.165.142-.27.142-1,.005-1.993.005-2.989.005q-2.76,0-5.52,0v-.005Z" transform="translate(-0.033 -25.148)" fill="#ee1c25"></path>
      <path id="tick-mark_1_" d="M71.348,120.445a22.186,22.186,0,0,0-5,6.917.139.139,0,0,1-.111.089.028.028,0,0,1-.022.007.125.125,0,0,1-.1-.045l-3.645-3.7a7.428,7.428,0,0,1,1.123-.967l2,1.569a23.383,23.383,0,0,1,5.355-4.611,4.255,4.255,0,0,1,.439.581A.148.148,0,0,1,71.348,120.445Z" transform="translate(-46.365 -120.254)" fill="#ee1c25"></path>
    </g>
  </symbol>
  <symbol xmlns="http://www.w3.org/2000/svg" viewBox="0 0 35.138 20.213" id="IranUser18">
    <g id="icon" transform="translate(0 -1.432)">
      <path id="user-alt-3" d="M8.79,44.056c-2.8,0-5.6,0-8.4.009-.3,0-.328-.1-.348-.362-.135-1.762.917-2.729,2.3-3.478.887-.481,1.862-.757,2.786-1.15a4.683,4.683,0,0,0,1.045-.562A.771.771,0,0,0,6.4,37.388c-.206-.339-.458-.646-.678-.977A6.876,6.876,0,0,1,4.646,30.8a4.221,4.221,0,0,1,4.294-3.327,3.972,3.972,0,0,1,3.75,2.531,6.52,6.52,0,0,1-.7,6.279c-.2.328-.455.625-.671.945a.866.866,0,0,0,.307,1.41,11.287,11.287,0,0,0,2.234.963,7.464,7.464,0,0,1,2.916,1.716,3.122,3.122,0,0,1,.8,2.592c-.014.209-.165.142-.27.142-1,.005-2,.005-2.993.005q-2.764,0-5.527,0Z" transform="translate(9.49 -22.419)" fill="#ee1c25"></path>
      <path id="tick-mark_1_" d="M71.47,120.455a22.491,22.491,0,0,0-5.067,7.012.14.14,0,0,1-.113.09.029.029,0,0,1-.023.007.127.127,0,0,1-.106-.045l-3.695-3.755a7.53,7.53,0,0,1,1.139-.981l2.028,1.591a23.705,23.705,0,0,1,5.428-4.674,4.314,4.314,0,0,1,.445.589A.15.15,0,0,1,71.47,120.455Z" transform="translate(-36.38 -117.268)" fill="#ee1c25"></path><text id="_-18" transform="translate(25 10.432)" fill="#ee1c25" font-size="9" font-family="IRANSansWebFaNum-Bold, &#x27;IRANSansWeb\(FaNum\)&#x27;" font-weight="700">
        <tspan x="-12.878" y="0">18-</tspan>
      </text>
    </g>
  </symbol>
  <symbol id="linkedin" xmlns="http://www.w3.org/2000/svg" viewBox="0 0 20 20">
    <path id="Path_859" d="M20,18.75A1.25,1.25,0,0,1,18.75,20H1.25A1.25,1.25,0,0,1,0,18.75V1.25A1.25,1.25,0,0,1,1.25,0h17.5A1.25,1.25,0,0,1,20,1.25Z" fill="#646466"></path>
    <g id="Group_110" transform="translate(-0.368 0.325)">
      <path id="Path_860" d="M17.849,11c-1.8,0-2.115.658-2.263,1.293V11H13v9.053h2.587V14.88a1.163,1.163,0,0,1,1.293-1.293,1.167,1.167,0,0,1,1.293,1.293v5.173H20.76V15.527C20.76,12.94,20.423,11,17.849,11Z" transform="translate(-4.957 -4.212)" fill="#fff"></path>
      <circle id="Ellipse_16" cx="1.25" cy="1.25" r="1.25" transform="translate(4.368 2.675)" fill="#fff"></circle>
      <rect id="Rectangle_30" width="2.5" height="9.053" transform="translate(4.368 6.788)" fill="#fff"></rect>
    </g>
  </symbol>
  <symbol xmlns="http://www.w3.org/2000/svg" viewBox="0 0 24 20" id="menu">
    <g id="toggle_menu" transform="translate(0 -0.462)">
      <rect id="Rectangle_13" width="24" height="4" rx="2" transform="translate(0 0.462)" fill="#646466"></rect>
      <rect id="Rectangle_14" width="24" height="4" rx="2" transform="translate(0 8.462)" fill="#646466"></rect>
      <rect id="Rectangle_15" width="24" height="4" rx="2" transform="translate(0 16.462)" fill="#646466"></rect>
    </g>
  </symbol>
</svg>