<svg width="0" height="0" class="hidden">
  <symbol id="ForeignCompany" xmlns="http://www.w3.org/2000/svg" viewBox="0 0 32.355 20.295">
    <path id="users-alt-3" d="M13.853,214.247c-2.765,0-5.531-.006-8.3.008-.294,0-.324-.1-.344-.357-.133-1.74.906-2.7,2.272-3.436.876-.474,1.837-.748,2.752-1.136a4.679,4.679,0,0,0,1.031-.554.76.76,0,0,0,.224-1.111c-.2-.335-.454-.64-.671-.964a6.8,6.8,0,0,1-1.061-5.542A4.163,4.163,0,0,1,14,197.87a3.917,3.917,0,0,1,3.7,2.5,6.432,6.432,0,0,1-.687,6.2c-.2.324-.449.618-.662.934a.853.853,0,0,0,.3,1.391,11.054,11.054,0,0,0,2.209.953,7.4,7.4,0,0,1,2.879,1.693,3.091,3.091,0,0,1,.79,2.563c-.014.205-.163.139-.266.139-.986.006-1.97.006-2.957.006q-2.731,0-5.459,0v0Zm11.672-2.433h-1.9c-.111,0-.213,0-.28-.125a6.491,6.491,0,0,0-3.566-2.81c-.643-.255-1.291-.5-1.94-.743-.238-.089-.319-.166-.127-.424a8.252,8.252,0,0,0,1.693-5.528,6.182,6.182,0,0,0-1.419-3.674c-.163-.194-.114-.26.061-.38a3.654,3.654,0,0,1,5.5,1.7,5.691,5.691,0,0,1-.829,5.512c-.155.222-.33.432-.474.662a.7.7,0,0,0,.2,1.05,6.213,6.213,0,0,0,1.629.765,8.414,8.414,0,0,1,2.594,1.311,2.727,2.727,0,0,1,1.047,2.5c-.017.205-.133.188-.263.188Zm-15.31-3.841a9.054,9.054,0,0,1-1.477.607,21.973,21.973,0,0,0-2.092.923,5.389,5.389,0,0,0-2.2,2.125.31.31,0,0,1-.3.188c-1.3,0-2.594-.005-3.891,0-.191,0-.2-.083-.211-.233a2.873,2.873,0,0,1,1.541-2.821,8.824,8.824,0,0,1,1.94-.887,8.056,8.056,0,0,0,1.621-.715c.579-.366.671-.709.283-1.275a9.1,9.1,0,0,1-1.081-1.768A5.422,5.422,0,0,1,4.4,199.4a3.663,3.663,0,0,1,5.323-1.264c.158.111.224.172.067.357a6.5,6.5,0,0,0-1.41,5.049,8.044,8.044,0,0,0,1.74,4.3,1.425,1.425,0,0,1,.091.136Z" transform="translate(-0.023 -193.961)" fill="#ee1c25"></path>
    <path id="question" d="M248.061,65.951a4.6,4.6,0,0,0,.531-.126,2.093,2.093,0,0,0,.509-.227,1.257,1.257,0,0,0,.381-.36.917.917,0,0,0,.149-.536.838.838,0,0,0-.344-.724,1.511,1.511,0,0,0-.907-.249c-.155,0-.292.006-.414.016a2.235,2.235,0,0,0-.337.055c-.1.026-.209.055-.315.088s-.22.072-.337.116a3.461,3.461,0,0,1-.254-.6,2.681,2.681,0,0,1-.122-.641c.191-.067.369-.124.531-.171s.321-.087.476-.116a4.557,4.557,0,0,1,.465-.06c.155-.01.321-.016.5-.016a2.922,2.922,0,0,1,2,.6,2.1,2.1,0,0,1,.674,1.653,1.9,1.9,0,0,1-.2.9,2.326,2.326,0,0,1-.481.636,2.866,2.866,0,0,1-.58.421c-.2.106-.362.186-.487.238v1.005a4.417,4.417,0,0,1-.74.067,3.563,3.563,0,0,1-.7-.067Zm-.11,4.4a5.077,5.077,0,0,1-.067-.807,5.175,5.175,0,0,1,.067-.818,5.076,5.076,0,0,1,.807-.067,5.275,5.275,0,0,1,.818.067,5.211,5.211,0,0,1,.067.807,5.134,5.134,0,0,1-.067.818,5.21,5.21,0,0,1-.807.067A5.021,5.021,0,0,1,247.951,70.352Z" transform="translate(-218.891 -62.4)" fill="#ee1c25"></path>
  </symbol>
  <symbol xmlns="http://www.w3.org/2000/svg" viewBox="0 0 19.975 19.295" id="ForeignUser">
    <g id="icon" transform="translate(0 -1)">
      <path id="user-alt-3" d="M8.887,44.24c-2.829,0-5.66,0-8.491.009-.3,0-.332-.1-.352-.366-.137-1.781.927-2.76,2.325-3.516.9-.487,1.883-.765,2.817-1.163a4.735,4.735,0,0,0,1.057-.568A.779.779,0,0,0,6.472,37.5c-.208-.343-.464-.654-.686-.987A6.953,6.953,0,0,1,4.7,30.839,4.268,4.268,0,0,1,9.04,27.475a4.017,4.017,0,0,1,3.792,2.559,6.593,6.593,0,0,1-.7,6.349c-.206.332-.46.632-.678.955a.876.876,0,0,0,.311,1.426,11.413,11.413,0,0,0,2.259.973,7.548,7.548,0,0,1,2.948,1.735,3.157,3.157,0,0,1,.808,2.621c-.014.211-.167.144-.274.144-1.009.005-2.018.005-3.026.005q-2.795,0-5.589,0V44.24Z" transform="translate(-0.033 -23.954)" fill="#ee1c25"></path>
      <path id="question" d="M248.061,65.951a4.6,4.6,0,0,0,.531-.126,2.093,2.093,0,0,0,.509-.227,1.257,1.257,0,0,0,.381-.36.917.917,0,0,0,.149-.536.838.838,0,0,0-.344-.724,1.511,1.511,0,0,0-.907-.249c-.155,0-.292.006-.414.016a2.235,2.235,0,0,0-.337.055c-.1.026-.209.055-.315.088s-.22.072-.337.116a3.461,3.461,0,0,1-.254-.6,2.681,2.681,0,0,1-.122-.641c.191-.067.369-.124.531-.171s.321-.087.476-.116a4.557,4.557,0,0,1,.465-.06c.155-.01.321-.016.5-.016a2.922,2.922,0,0,1,2,.6,2.1,2.1,0,0,1,.674,1.653,1.9,1.9,0,0,1-.2.9,2.326,2.326,0,0,1-.481.636,2.866,2.866,0,0,1-.58.421c-.2.106-.362.186-.487.238v1.005a4.417,4.417,0,0,1-.74.067,3.563,3.563,0,0,1-.7-.067Zm-.11,4.4a5.077,5.077,0,0,1-.067-.807,5.175,5.175,0,0,1,.067-.818,5.076,5.076,0,0,1,.807-.067,5.275,5.275,0,0,1,.818.067,5.211,5.211,0,0,1,.067.807,5.134,5.134,0,0,1-.067.818,5.21,5.21,0,0,1-.807.067A5.021,5.021,0,0,1,247.951,70.352Z" transform="translate(-231.271 -61.4)" fill="#ee1c25"></path>
    </g>
  </symbol>
  <symbol id="IranCompany" xmlns="http://www.w3.org/2000/svg" viewBox="0 0 34.934 19.131">
    <path id="users-alt-3" d="M13.853,214.247c-2.765,0-5.531-.006-8.3.008-.294,0-.324-.1-.344-.357-.133-1.74.906-2.7,2.272-3.436.876-.474,1.837-.748,2.752-1.136a4.679,4.679,0,0,0,1.031-.554.76.76,0,0,0,.224-1.111c-.2-.335-.454-.64-.671-.964a6.8,6.8,0,0,1-1.061-5.542A4.163,4.163,0,0,1,14,197.87a3.917,3.917,0,0,1,3.7,2.5,6.432,6.432,0,0,1-.687,6.2c-.2.324-.449.618-.662.934a.853.853,0,0,0,.3,1.391,11.054,11.054,0,0,0,2.209.953,7.4,7.4,0,0,1,2.879,1.693,3.091,3.091,0,0,1,.79,2.563c-.014.205-.163.139-.266.139-.986.006-1.97.006-2.957.006q-2.731,0-5.459,0v0Zm11.672-2.433h-1.9c-.111,0-.213,0-.28-.125a6.491,6.491,0,0,0-3.566-2.81c-.643-.255-1.291-.5-1.94-.743-.238-.089-.319-.166-.127-.424a8.252,8.252,0,0,0,1.693-5.528,6.182,6.182,0,0,0-1.419-3.674c-.163-.194-.114-.26.061-.38a3.654,3.654,0,0,1,5.5,1.7,5.691,5.691,0,0,1-.829,5.512c-.155.222-.33.432-.474.662a.7.7,0,0,0,.2,1.05,6.213,6.213,0,0,0,1.629.765,8.414,8.414,0,0,1,2.594,1.311,2.727,2.727,0,0,1,1.047,2.5c-.017.205-.133.188-.263.188Zm-15.31-3.841a9.054,9.054,0,0,1-1.477.607,21.973,21.973,0,0,0-2.092.923,5.389,5.389,0,0,0-2.2,2.125.31.31,0,0,1-.3.188c-1.3,0-2.594-.005-3.891,0-.191,0-.2-.083-.211-.233a2.873,2.873,0,0,1,1.541-2.821,8.824,8.824,0,0,1,1.94-.887,8.056,8.056,0,0,0,1.621-.715c.579-.366.671-.709.283-1.275a9.1,9.1,0,0,1-1.081-1.768A5.422,5.422,0,0,1,4.4,199.4a3.663,3.663,0,0,1,5.323-1.264c.158.111.224.172.067.357a6.5,6.5,0,0,0-1.41,5.049,8.044,8.044,0,0,0,1.74,4.3,1.425,1.425,0,0,1,.091.136Z" transform="translate(-0.023 -195.125)" fill="#ee1c25"></path>
    <path id="tick-mark_1_" d="M71.459,120.454a22.462,22.462,0,0,0-5.061,7,.14.14,0,0,1-.113.09.029.029,0,0,1-.023.007.127.127,0,0,1-.105-.045l-3.69-3.75a7.52,7.52,0,0,1,1.137-.979l2.026,1.589a23.674,23.674,0,0,1,5.421-4.668,4.308,4.308,0,0,1,.444.588A.15.15,0,0,1,71.459,120.454Z" transform="translate(-36.573 -119.7)" fill="#ee1c25"></path>
  </symbol>
  <symbol xmlns="http://www.w3.org/2000/svg" viewBox="0 0 25.03 19.449" id="IranUser">
    <g id="icon" transform="translate(0 0.554)">
      <path id="user-alt-3" d="M8.779,44.034c-2.794,0-5.59,0-8.387.009-.3,0-.328-.1-.347-.361-.135-1.759.916-2.726,2.3-3.473.886-.481,1.859-.756,2.782-1.149A4.677,4.677,0,0,0,6.167,38.5a.77.77,0,0,0,.226-1.123c-.205-.339-.458-.646-.677-.975A6.868,6.868,0,0,1,4.64,30.8a4.215,4.215,0,0,1,4.289-3.322A3.967,3.967,0,0,1,12.674,30a6.512,6.512,0,0,1-.695,6.271c-.2.328-.454.624-.67.944a.865.865,0,0,0,.307,1.409,11.272,11.272,0,0,0,2.231.961A7.455,7.455,0,0,1,16.76,41.3a3.118,3.118,0,0,1,.8,2.589c-.014.209-.165.142-.27.142-1,.005-1.993.005-2.989.005q-2.76,0-5.52,0v-.005Z" transform="translate(-0.033 -25.148)" fill="#ee1c25"></path>
      <path id="tick-mark_1_" d="M71.348,120.445a22.186,22.186,0,0,0-5,6.917.139.139,0,0,1-.111.089.028.028,0,0,1-.022.007.125.125,0,0,1-.1-.045l-3.645-3.7a7.428,7.428,0,0,1,1.123-.967l2,1.569a23.383,23.383,0,0,1,5.355-4.611,4.255,4.255,0,0,1,.439.581A.148.148,0,0,1,71.348,120.445Z" transform="translate(-46.365 -120.254)" fill="#ee1c25"></path>
    </g>
  </symbol>
  <symbol xmlns="http://www.w3.org/2000/svg" viewBox="0 0 35.138 20.213" id="IranUser18">
    <g id="icon" transform="translate(0 -1.432)">
      <path id="user-alt-3" d="M8.79,44.056c-2.8,0-5.6,0-8.4.009-.3,0-.328-.1-.348-.362-.135-1.762.917-2.729,2.3-3.478.887-.481,1.862-.757,2.786-1.15a4.683,4.683,0,0,0,1.045-.562A.771.771,0,0,0,6.4,37.388c-.206-.339-.458-.646-.678-.977A6.876,6.876,0,0,1,4.646,30.8a4.221,4.221,0,0,1,4.294-3.327,3.972,3.972,0,0,1,3.75,2.531,6.52,6.52,0,0,1-.7,6.279c-.2.328-.455.625-.671.945a.866.866,0,0,0,.307,1.41,11.287,11.287,0,0,0,2.234.963,7.464,7.464,0,0,1,2.916,1.716,3.122,3.122,0,0,1,.8,2.592c-.014.209-.165.142-.27.142-1,.005-2,.005-2.993.005q-2.764,0-5.527,0Z" transform="translate(9.49 -22.419)" fill="#ee1c25"></path>
      <path id="tick-mark_1_" d="M71.47,120.455a22.491,22.491,0,0,0-5.067,7.012.14.14,0,0,1-.113.09.029.029,0,0,1-.023.007.127.127,0,0,1-.106-.045l-3.695-3.755a7.53,7.53,0,0,1,1.139-.981l2.028,1.591a23.705,23.705,0,0,1,5.428-4.674,4.314,4.314,0,0,1,.445.589A.15.15,0,0,1,71.47,120.455Z" transform="translate(-36.38 -117.268)" fill="#ee1c25"></path><text id="_-18" transform="translate(13 10.432)" fill="#ee1c25" font-size="9" font-family="IRANSansWebFaNum-Bold, &#x27;IRANSansWeb\(FaNum\)&#x27;" font-weight="700">
        <tspan x="-12.878" y="0">-18</tspan>
      </text>
    </g>
  </symbol>
  <symbol id="menu" enable-background="new 0 0 24 24" xmlns="http://www.w3.org/2000/svg" viewBox="0 0 24 24">
    <g>
      <path d="m21.5 24h-19c-1.379 0-2.5-1.122-2.5-2.5v-19c0-1.378 1.121-2.5 2.5-2.5h19c1.379 0 2.5 1.122 2.5 2.5v19c0 1.378-1.121 2.5-2.5 2.5zm-19-23c-.827 0-1.5.673-1.5 1.5v19c0 .827.673 1.5 1.5 1.5h19c.827 0 1.5-.673 1.5-1.5v-19c0-.827-.673-1.5-1.5-1.5z"></path>
    </g>
    <g>
      <path d="m16.5 8h-9c-.276 0-.5-.224-.5-.5s.224-.5.5-.5h9c.276 0 .5.224.5.5s-.224.5-.5.5z"></path>
    </g>
    <g>
      <path d="m16.5 12.5h-9c-.276 0-.5-.224-.5-.5s.224-.5.5-.5h9c.276 0 .5.224.5.5s-.224.5-.5.5z"></path>
    </g>
    <g>
      <path d="m16.5 17h-9c-.276 0-.5-.224-.5-.5s.224-.5.5-.5h9c.276 0 .5.224.5.5s-.224.5-.5.5z"></path>
    </g>
  </symbol>
</svg>